<?xml version="1.0" standalone="no"?>
<!DOCTYPE svg PUBLIC "-//W3C//DTD SVG 1.1//EN" "http://www.w3.org/Graphics/SVG/1.1/DTD/svg11.dtd">
<svg xmlns="http://www.w3.org/2000/svg">
<defs >
<font id="BalsamiqSans" horiz-adv-x="651" ><font-face
    font-family="Balsamiq Sans"
    units-per-em="1000"
    panose-1="2 0 6 3 0 0 0 0 0 0"
    ascent="900"
    descent="-300"
    alphabetic="0" />
<glyph unicode=" " glyph-name="space" horiz-adv-x="270" />
<glyph unicode="!" glyph-name="exclam" horiz-adv-x="260" d="M139 634Q145 663 170 683T224 704T269 684T279 634L193 226Q186 197 162 177T109 156T63 175T52 224L139 634ZM144 96Q161 76 155 47T124 -2T70 -23T25 -3T14 47T45 96T99 117T144 96V96Z" />
<glyph unicode="&quot;" glyph-name="quotedbl" horiz-adv-x="436" d="M234 469Q227 441 202 421T149 401T105 423T95 473Q116 563 131 639Q137 668 161 688T215 709T260 690T272 641Q256 563 234 469V469ZM399 472Q392 444 367 424T313 404T270 426T260 476Q281
566 296 642Q302 671 326 691T380 712T425 693T436 644Q421 566 399 472V472Z" />
<glyph unicode="#" glyph-name="numbersign" horiz-adv-x="643" d="M459 62Q450 33 424 15T370 0T328 25T324 76Q337 119 349 164H283Q268 112 254 69Q245 40 219 22T164 7T123 33T120 85Q131 121 143 160Q124 160 104 159Q75 158 59 178T47 227T76 277T130 299Q157
300 181 300L195 357L205 394Q197 393 189 393Q160 393 144 413T133 462T163 511T217 533H245Q260 587 278 638Q288 667 315 684T369 698T409 671T412 620Q399 580 386 537Q415 538 438 538Q450 592 461 635Q470 664 495 683T548 702T592 679T600 629Q589 588 578
539Q602 538 624 538Q653 537 668 516T677 466T644 417T590 398Q568 399 546 399Q539 370 535 349Q530 325 524 304Q549 303 573 303Q602 302 617 282T627 232T595 183T541 163Q515 164 489 164Q474 111 459 62V62ZM321 303Q353 304 385 304L395 351Q400 371 406
399Q380 398 346 397L334 350L321 303V303Z" />
<glyph unicode="$" glyph-name="dollar" horiz-adv-x="659" d="M312 -48Q305 -77 286 -95T241 -114T205 -97T205 -38L230 68L289 330L303 410L375 747Q386 768 403 779T443 790Q468 790 479 776T487 735L460 619L396 328L320 -16L312 -48V-48ZM288 -27Q170 -27
111 23T52 154Q52 213 77 242T138 271Q161 271 178 258T195 219Q195 217 192 181L190 161Q190 138 218 122T302 106Q337 106 369 118T422 150T442 192Q442 210 428 226T377 257L338 272Q321 278 301 285T259 302Q109 363 109 481Q109 540 148 592T251 675T387 706Q493
706 560 655T627 512Q627 463 606 437T550 410Q519 410 501 426T482 469Q482 495 481 505T472 526Q458 544 428 557T356 572Q307 572 279 552T251 505Q251 479 272 464T354 424Q370 418 378 414Q436 392 476 372Q533 344 559 308T586 216Q586 148 542 93T428 5T288
-27V-27V-27Z" />
<glyph unicode="%" glyph-name="percent" horiz-adv-x="945" d="M307 20Q287 -6 258 -14T206 -10T181 31T196 84L664 703Q682 729 711 737T764 733T790 693T774 639L307 20V20ZM285 483Q298 487 314 504T340 545Q346 563 344 572Q342 577 331 580L322 578Q318
577 312 575Q304 570 291 563L271 551L259 544Q243 523 255 498Q266 477 285 483V483ZM301 351Q240 332 193 352Q147 373 124 417Q111 444 108 476T117 545Q128 582 154 614Q177 643 217 667L226 672Q249 700 282 705Q287 706 296 708Q317 713 318 713Q358 723
388 716Q459 700 480 639Q497 588 473 523Q452 468 406 419T301 351V351ZM683 136Q691 136 706 144T734 166Q750 184 742 195Q740 198 728 202L677 220Q654 206 649 186T654 151T683 136V136ZM656 -4Q607 -4 572 15T522 64T506 133T519 210T562 283T632 340Q658
354 692 361L712 365Q719 366 724 367Q748 374 768 365T796 336L799 334Q845 319 866 289Q887 257 887 219T873 149Q858 117 833 89Q799 50 751 24Q703 -3 656 -4V-4Z" />
<glyph unicode="&amp;" glyph-name="ampersand" horiz-adv-x="672" d="M510 -2Q477 -2 447 32L350 143Q274 231 224 323T174 501Q174 564 208 615T296 696T409 726Q476 726 511 693T547 613Q547 547 496 492Q466 460 424 427T312 348Q247 306 211 269T175 191Q175
164 191 149T236 133Q270 133 294 148T358 202L376 219Q403 243 437 293L456 321Q469 341 489 353T530 365Q554 365 569 349T585 308Q585 282 570 255T537 207T478 143Q412 73 348 37T212 0Q159 0 119 20T57 77T34 158Q34 238 86 302T253 439Q341 494 368 516Q400
539 400 566Q400 579 392 586T369 594Q343 594 329 577T315 531Q315 493 341 436T404 324L419 302Q454 252 467 239L569 133Q583 119 587 108T592 81Q592 45 568 22T510 -2V-2Z" />
<glyph unicode="&apos;" glyph-name="quotesingle" horiz-adv-x="224" d="M201 392Q179 372 152 370T108 386T94 432Q107 514 137 657Q143 684 166 703T217 723T259 704T269 657Q240 518 228 440Q224 413 201 392V392Z" />
<glyph unicode="(" glyph-name="parenleft" horiz-adv-x="359" d="M75 -156L68 -136Q64 -126 62 -119Q48 -83 43 -55Q24 34 36 133T86 328T174 510Q224 596 286 677Q306 702 335 710T387 704T411 662T394 609Q336 533 293 461Q249 385 219 306T178 148T182 -1Q186
-20 197 -49L218 -105Q227 -131 213 -158T171 -200T116 -206T82 -173L75 -156Z" />
<glyph unicode=")" glyph-name="parenright" horiz-adv-x="346" d="M73 -164Q54 -190 25 -199T-27 -197T-54 -157T-41 -104Q37 7 81 92T144 253Q182 403 127 605Q121 631 136 658T179 697T233 701T266 665Q298 547 302 447T283 248Q259 153 208 55T73 -164V-164Z" />
<glyph unicode="*" glyph-name="asterisk" horiz-adv-x="467" d="M246 373Q223 350 194 348T145 363T130 410Q134 439 156 461L183 487L148 501Q123 510 117 536T125 590T170 629T224 631L249 622L254 653Q260 682 284 702T338 723T383 704T395 655L391 639L406
644Q436 652 459 639T484 598T469 545T420 510L449 480Q465 460 461 432T432 382T379 359T332 376L294 419L246 373V373Z" />
<glyph unicode="+" glyph-name="plus" horiz-adv-x="628" d="M223 195Q175 194 112 192Q83 191 67 211T55 260T84 310T138 332L251 334L273 436Q280 465 305 485T359 505T403 484T413 434Q402 389 390 334L520 332Q549 331 564 310T573 260T541 212T486 192Q420
194 362 195Q347 121 338 77Q332 48 307 28T253 7T208 27T198 77L223 195Z" />
<glyph unicode="," glyph-name="comma" horiz-adv-x="222" d="M-40 -187Q-63 -187 -78 -172T-93 -135Q-93 -109 -74 -86L-57 -67Q-32 -40 -24 -27Q-21 -23 -3 14Q1 22 4 30T12 46Q37 90 79 90Q103 90 117 76T132 37Q132 4 95 -61Q65 -114 38 -145Q2 -187 -40 -187V-187Z" />
<glyph unicode="-" glyph-name="hyphen" horiz-adv-x="409" d="M107 200Q78 200 62 220T52 270T83 319T137 340H304Q333 340 349 320T359 270T328 221T274 200H107V200Z" />
<glyph unicode="." glyph-name="period" horiz-adv-x="220" d="M134 124Q152 102 145 71T112 18T54 -4T6 18T-5 71T28 124T85 146T134 124V124Z" />
<glyph unicode="/" glyph-name="slash" horiz-adv-x="478" d="M157 48Q143 20 115 6T61 0T26 33T31 86L367 672Q380 700 408 715T462 724T499 693T497 640L157 48V48Z" />
<glyph unicode="0" glyph-name="zero" horiz-adv-x="603" d="M227 -3Q170 5 130 34T72 108T47 201T47 302Q60 408 115 513Q169 617 251 679Q274 696 312 711Q314 711 327 716T348 725Q372 736 393 732T427 710Q443 708 450 707Q503 697 535 678Q602 633 601 495Q600
414 580 323Q551 196 470 103Q423 48 360 19Q297 -12 227 -3V-3ZM274 144Q327 138 371 187Q418 243 437 325Q453 399 454 464Q455 490 452 509T445 537T437 548Q425 555 398 560Q393 560 387 561T374 563T363 564Q345 568 330 572Q322 568 319 565Q276 533 239
463T192 316Q184 240 205 195T274 144V144Z" />
<glyph unicode="1" glyph-name="one" horiz-adv-x="401" d="M283 64Q276 35 251 15T197 -4T153 18T144 68Q167 164 227 460L170 427Q143 411 116 416T77 446T78 498T117 543L152 563Q172 574 177 577T193 588T212 604L231 625Q239 631 242 649Q255 675 270 691Q307
729 354 726Q390 723 402 691Q405 683 406 674Q406 669 406 662T404 646Q402 631 396 604Q389 565 374 491Q299 131 283 64V64Z" />
<glyph unicode="2" glyph-name="two" horiz-adv-x="578" d="M444 -6Q427 -5 398 -5T344 -4T298 -3Q270 -3 214 -5Q132 -8 87 4Q21 22 13 77Q4 126 48 182Q74 213 228 349T396 505Q406 520 406 539Q406 586 359 586Q334 586 308 573T264 538Q261 534 255 522Q254
519 253 516T251 510T248 503L238 477Q224 449 196 434T142 425T106 458T108 512Q111 517 114 526Q123 547 123 548Q137 585 158 610Q202 666 265 697T390 729Q458 728 503 688T550 572Q551 504 510 443Q478 399 236 183L199 154Q190 146 182 137Q205 135 239 137Q298
139 328 139Q329 139 476 136Q505 135 520 114T530 64T498 14T444 -6V-6Z" />
<glyph unicode="3" glyph-name="three" horiz-adv-x="565" d="M61 66Q46 86 38 120L33 141Q32 151 30 156Q23 180 36 206T77 244T128 249T160 216Q163 206 166 192L170 173Q173 160 176 156Q187 142 213 134T276 130T342 148T385 180Q393 191 399 226Q410 302
300 326Q266 318 246 340Q232 350 227 367T228 404Q238 431 263 448T315 462Q318 461 323 460Q331 462 339 463T351 465T360 467T371 472Q404 489 411 509Q417 532 399 557Q376 588 338 594T251 575L243 568L231 554Q221 542 214 535Q193 514 165 511T119 524T103
568T128 617Q131 620 137 626L150 642Q175 670 200 685Q265 723 329 727T440 709T515 647Q563 580 540 500Q525 443 476 400Q548 339 532 234Q522 160 485 114Q445 63 385 35T264 -1T147 8T61 66V66Z" />
<glyph unicode="4" glyph-name="four" horiz-adv-x="564" d="M375 68Q368 39 343 19T290 -1T245 20T235 70Q253 147 259 178H255Q170 179 121 189Q86 195 64 207Q21 231 23 277Q27 331 84 376L101 388Q107 392 108 393T112 395T116 398Q253 539 344 663Q348 667
351 671Q361 694 381 709T426 727Q455 730 473 712T488 664Q470 509 430 319Q500 322 502 322Q531 322 547 302T557 252T526 203T472 182Q470 182 400 180Q393 146 375 68V68ZM290 317Q302 373 311 423L216 321Q246 318 287 317H290Z" />
<glyph unicode="5" glyph-name="five" horiz-adv-x="557" d="M235 -1Q158 -4 112 13Q100 18 87 26L28 59Q6 72 3 99T18 151T65 184T116 181L146 162Q162 153 169 149T186 142Q208 133 258 135Q279 136 305 148Q362 175 378 211Q393 242 379 277Q364 318 324 340T240
353Q236 353 224 347Q186 327 184 326Q171 320 156 319Q144 316 131 317Q104 321 91 343T87 393Q125 505 169 642Q174 656 184 668Q195 690 216 703T260 717Q358 718 543 718Q572 718 588 698T598 648T567 599T513 578H283Q258 498 255 489Q345 502 414 460T511
346Q542 262 503 177Q459 83 343 28Q287 1 235 -1V-1Z" />
<glyph unicode="6" glyph-name="six" horiz-adv-x="587" d="M219 -2Q157 15 117 55T62 150T48 263T65 381Q81 439 110 495T180 601T278 685Q334 719 397 726Q426 729 449 726Q473 724 494 713T524 696T553 673T574 655Q594 639 594 610T572 556T521 525T470 536L452
552Q442 560 437 564L425 573Q417 578 415 578T406 582T394 584T380 583Q338 578 295 538T225 433Q237 441 251 448Q305 474 365 469T468 438T529 373T550 289T536 196Q521 150 492 109T420 38T327 -4T219 -2V-2ZM281 138Q322 127 355 150Q388 171 402 213T399
288T324 325Q303 327 290 320Q268 310 233 281L193 247Q206 158 281 138V138Z" />
<glyph unicode="7" glyph-name="seven" horiz-adv-x="532" d="M199 45Q182 18 153 7T100 7T71 46T83 99L128 172Q166 232 182 256L230 328Q262 375 319 458T382 546Q399 573 409 585H337Q197 585 159 584Q130 584 114 604T102 653T132 702T186 724Q263 725 368
725Q436 725 481 723Q513 722 523 721T540 718Q547 717 552 714Q572 707 580 691Q603 651 569 590Q552 552 488 465T398 345T342 268L298 201Q284 179 246 119T199 45V45Z" />
<glyph unicode="8" glyph-name="eight" horiz-adv-x="581" d="M237 -4Q130 -4 76 47T31 182Q37 228 63 272T129 350Q104 385 102 431T119 525Q151 604 227 660T399 716Q478 716 526 671T580 557Q585 507 560 451T485 355Q530 304 530 241T488 120Q446 63 378 30Q310
-4 237 -4V-4ZM265 128Q304 128 336 144T384 181Q415 223 365 267Q354 278 343 285Q327 277 310 277Q308 277 266 280Q252 281 247 279Q214 271 191 246T165 193Q163 183 166 173T177 152T209 135T265 128V128ZM305 421Q335 427 357 426Q372 428 385 433Q418 448
433 471T445 520Q443 548 424 566T371 584Q325 584 291 560T244 501Q232 472 240 449T282 416L305 421Z" />
<glyph unicode="9" glyph-name="nine" horiz-adv-x="566" d="M438 66Q430 38 404 20T349 3T307 28T303 80Q326 157 354 268Q343 264 337 263Q300 253 272 253Q198 254 149 283T78 363Q59 410 67 467T106 571Q137 624 186 663Q237 702 298 716Q431 747 557 650Q572
638 575 618T568 578Q511 313 438 66V66ZM302 385Q310 385 327 390Q375 403 377 403Q384 405 390 405Q408 480 425 564Q360 602 303 588Q250 575 219 524T204 432Q224 386 302 385V385Z" />
<glyph unicode=":" glyph-name="colon" horiz-adv-x="240" d="M221 532Q239 510 232 479T199 426T141 404T93 426T82 479T115 532T172 554T221 532V532ZM137 124Q155 102 148 71T115 18T57 -4T9 18T-2 71T31 124T88 146T137 124V124Z" />
<glyph unicode=";" glyph-name="semicolon" horiz-adv-x="225" d="M65 -126Q54 -153 27 -167T-26 -176T-61 -146T-59 -95L-1 41Q10 68 37 82T90 91T125 61T123 10L65 -126V-126ZM213 496Q231 474 224 443T191 390T133 368T85 390T74 443T107 496T164 518T213 496V496V496Z"
/>
<glyph unicode="&lt;" glyph-name="less" horiz-adv-x="751" d="M532 8Q453 51 322 98L251 124L166 154Q129 167 97 180Q73 189 67 214T75 264Q94 299 132 307H133L226 340L332 380L619 494Q646 504 669 494T697 459T688 409T645 372L326 246L391 223Q529 173
616 128Q637 116 640 90T628 40T583 6T532 8V8Z" />
<glyph unicode="=" glyph-name="equal" horiz-adv-x="675" d="M492 71Q433 73 304 74Q170 75 98 79Q70 81 56 102T48 153T81 201T136 219Q208 214 341 214Q473 213 527 211Q555 210 570 189T579 139T546 90T492 71V71ZM146 282Q117 282 101 301T89 350T119 400T172
422Q360 426 564 428Q592 428 609 408T620 359T589 309T535 288Q334 287 146 282V282Z" />
<glyph unicode="&gt;" glyph-name="greater" horiz-adv-x="739" d="M99 6Q70 -1 50 13T28 53T45 103T92 134Q186 157 330 210L422 244L140 362Q116 371 111 396T121 447T164 483T214 484L636 309Q660 299 665 274T657 224Q645 204 624 192Q612 181 597 176Q557
163 519 149L353 87Q196 31 99 6V6Z" />
<glyph unicode="?" glyph-name="question" horiz-adv-x="498" d="M311 256Q300 227 273 210T219 198T179 226T178 278Q180 284 181 289T185 300T189 311Q199 344 214 367Q238 406 291 449Q299 456 323 474T361 504Q386 525 392 537Q395 544 391 556T367 576T316
584Q286 584 264 575T230 554L229 548Q228 546 227 543L226 537L225 532Q221 517 217 506Q207 478 181 461T126 447T86 474T83 526Q84 529 86 536L91 556Q101 593 121 620Q160 671 221 696Q282 722 341 724Q402 726 454 703T526 628Q550 563 517 498Q495 453 441
407L401 376Q376 356 368 349Q339 326 330 313Q328 309 324 297Q311 258 311 256V256ZM261 122Q278 102 272 73T241 24T187 3T142 23T132 73T163 122T217 143T261 122V122Z" />
<glyph unicode="@" glyph-name="at" horiz-adv-x="922" d="M285 19Q222 40 174 82T100 182T72 305T99 442Q131 513 194 577Q281 665 404 698T637 707Q691 696 736 671T813 608T857 513T852 390L850 378Q847 365 845 359T839 340T831 317T819 296Q789 248 738 216T633
180T534 200Q516 212 505 228Q464 196 425 180Q396 169 370 167T316 176T270 212Q248 241 246 277T259 347T294 411T342 467Q398 521 470 552T600 559Q621 551 641 531Q643 529 651 521T664 509Q680 495 679 473T661 431Q651 420 639 414V413Q637 401 630 383Q628
380 621 364L610 337Q599 304 609 298Q632 283 669 296T724 338Q730 347 741 394Q760 473 719 526T592 598Q506 616 415 592Q325 567 268 509Q218 458 199 398T190 286T241 190T339 127Q383 110 438 112T543 126T656 163Q680 172 699 163T723 133T715 90T678 59Q626
39 580 26T483 5T382 0T285 19V19ZM403 283Q438 297 471 334Q499 364 513 399Q516 406 518 414T523 424Q528 439 536 450Q539 452 540 454Q539 454 538 455Q521 461 486 447T414 396Q387 371 375 349T361 312T366 290Q379 274 403 283V283Z" />
<glyph unicode="A" glyph-name="A" horiz-adv-x="607" d="M-36 41Q-38 51 -38 56Q-38 75 -26 94L321 661Q355 716 403 716Q431 716 448 702T470 661L498 491L531 276L560 96Q564 70 554 48T525 13T487 0Q437 0 428 43L404 195L182 190L95 41Q82 21 62 10T20 -2Q0
-2 -15 9T-36 41V41ZM382 328L362 473L267 326L382 328Z" />
<glyph unicode="B" glyph-name="B" horiz-adv-x="697" d="M252 -4Q232 -4 182 -2L100 2Q97 1 92 1Q75 1 61 9Q34 24 34 58Q34 68 35 73Q36 76 40 87L77 254Q104 376 119 460T146 628Q150 656 170 677T218 704Q233 713 254 715L376 719Q517 719 586 673T655 541Q655
489 628 446T564 389Q612 369 632 337T653 259Q653 197 626 152Q596 103 531 62Q433 3 292 -3Q279 -4 252 -4V-4ZM315 134Q374 137 408 143T469 165Q495 181 503 195T511 237Q509 285 431 294Q395 298 334 297L222 298L189 137Q198 136 205 136T218 135Q292 133
315 134V134ZM362 431Q427 431 473 455Q513 477 513 509Q513 538 476 556T369 575Q314 575 277 573L270 531L254 438Q313 431 362 431V431Z" />
<glyph unicode="C" glyph-name="C" horiz-adv-x="690" d="M335 -1Q269 -1 214 18T121 76Q85 112 66 164T46 282Q46 399 108 498T271 655T484 714Q533 714 578 697T652 648Q682 613 704 574Q713 558 713 543Q713 507 687 484T624 461Q595 461 578 485Q574 491 570
497T561 511Q555 522 547 534Q532 555 508 566T454 577Q385 577 323 539T224 437T186 302Q186 217 230 175T356 133Q399 133 431 145T481 178Q497 195 503 210L522 250Q535 273 554 284T595 295Q620 295 637 281T655 242Q655 222 634 181Q588 91 508 45T335 -1V-1Z"
/>
<glyph unicode="D" glyph-name="D" horiz-adv-x="693" d="M90 1Q63 2 47 22T37 71L97 359Q127 510 160 638Q167 665 192 685T247 704Q263 708 306 711T400 715Q534 715 614 649T695 455Q695 358 647 266T525 105Q464 49 388 25T234 0Q117 0 90 1V1ZM190 132Q249
132 268 133Q344 137 392 160T478 231Q517 281 536 334T555 434Q555 511 510 547T360 584Q326 584 284 581L252 435L216 258Q201 183 190 132V132Z" />
<glyph unicode="E" glyph-name="E" horiz-adv-x="652" d="M497 -1Q349 -1 94 2Q74 2 60 13T41 42Q33 60 38 81Q46 116 97 363Q134 543 166 646Q170 659 177 670Q189 690 208 702T251 716Q324 717 448 717T645 717Q674 717 690 697T700 649T671 600T618 579Q562
579 451 579T284 579Q268 518 249 435Q297 436 545 436Q574 436 590 416T601 368T570 319T516 298Q267 298 221 297Q199 185 188 139Q391 137 527 137Q556 137 571 117T581 68T551 19T497 -1V-1Z" />
<glyph unicode="F" glyph-name="F" horiz-adv-x="604" d="M40 70Q45 91 70 208T104 369T129 495T157 645Q162 674 186 695T239 718H244Q383 720 616 718Q644 718 661 697Q676 676 670 648T639 599T584 578Q399 580 285 579Q273 515 259 445Q400 445 520 448Q549
448 565 428T577 380T547 330T494 308Q374 306 230 305L202 174L180 70Q174 41 150 21T96 0T51 20T40 70V70Z" />
<glyph unicode="G" glyph-name="G" horiz-adv-x="734" d="M598 115Q538 57 469 28T335 -2T214 21T116 88T56 192Q34 265 50 344T109 490Q151 557 214 609Q278 663 349 691Q422 720 501 717T645 670Q663 660 675 648T699 620T715 597T730 569T743 545Q755 522 745
494T709 448T655 435T615 462L600 488L589 510Q586 516 580 525T567 539T551 552Q488 588 421 577T293 513Q229 461 202 393T192 256Q211 191 266 160T388 140T510 204Q535 227 541 241Q544 248 546 254Q518 255 436 251Q407 250 390 269T378 317T406 367T459 389Q541
392 643 392Q672 392 688 371Q706 350 698 319L693 296Q689 272 683 249T668 207Q647 162 598 115V115Z" />
<glyph unicode="H" glyph-name="H" horiz-adv-x="742" d="M178 69Q172 41 147 21T94 0T49 21T38 82Q56 148 96 351T159 650Q166 679 191 698T245 718T289 696T298 646Q280 570 256 452Q462 458 568 458Q592 570 609 649Q617 678 641 698T695 718T739 697T749 647Q734
582 625 69Q619 40 594 20T540 -1T495 19T485 69L539 322Q435 323 228 316Q195 150 178 69V69Z" />
<glyph unicode="I" glyph-name="I" horiz-adv-x="342" d="M59 -3Q30 -3 13 16T1 65Q7 91 28 111T74 136Q112 310 167 577Q144 582 132 601T126 646Q132 675 157 695T211 715L324 714Q353 714 368 693T378 643Q373 618 353 599T306 575Q253 312 215 139Q239 135
251 116T260 72Q254 43 230 22T177 0L59 -3V-3Z" />
<glyph unicode="J" glyph-name="J" horiz-adv-x="542" d="M214 13Q172 -1 135 -1T64 20T11 82Q-1 107 -2 146Q-2 147 -3 170Q-3 181 -4 187Q-7 215 11 240T59 275T111 271T138 231Q139 219 140 203Q139 202 140 194V181Q141 165 144 160Q157 130 190 142Q211 150
232 168T264 209Q285 251 300 294T325 390T340 473T356 578Q335 577 307 576T261 595T248 643T277 693T331 716Q486 721 582 716Q610 714 624 693T632 642T599 594T544 576Q520 578 496 578Q484 490 475 439T445 316Q421 234 390 171Q364 118 316 75T214 13V13Z"
/>
<glyph unicode="K" glyph-name="K" horiz-adv-x="679" d="M314 309L216 240Q201 159 185 65Q180 37 156 16T104 -7T58 10T44 59Q95 367 161 659Q168 688 192 708T246 728T290 707T300 657Q271 530 249 418Q435 552 601 703Q625 724 654 725T700 706T712 658T683
607Q561 495 439 402L606 106Q619 84 609 55Q600 26 574 8T519 -7T478 20L314 309Z" />
<glyph unicode="L" glyph-name="L" horiz-adv-x="576" d="M102 -1Q72 -1 54 23T42 75L100 364L157 645Q164 678 187 696T239 715Q264 715 281 701T298 661Q298 652 297 647L244 385L194 131L471 133Q498 133 514 117T531 80Q531 47 506 23T445 -1H317Q166 -3 102 -1V-1Z" />
<glyph unicode="M" glyph-name="M" horiz-adv-x="862" d="M745 67Q738 38 713 18T659 -1T614 21T606 71Q621 136 685 455Q591 362 497 256Q475 232 446 227T396 237Q393 239 392 241Q382 248 376 258L264 452Q264 450 224 261T182 70Q176 41 152 21T98 0T53 20T42
70Q51 112 72 211T105 364T132 498Q145 569 157 645Q161 674 184 696T238 720Q253 721 265 716Q292 712 304 689L467 410Q607 560 744 680Q773 716 813 715Q842 714 857 693T866 643Q843 548 805 353T745 67V67Z" />
<glyph unicode="N" glyph-name="N" horiz-adv-x="751" d="M551 4Q511 -3 491 28Q441 107 372 262Q295 419 260 475Q253 435 228 298T183 69Q177 40 152 20T98 -1T53 19T43 69Q62 157 98 353T160 651Q167 680 192 700T246 719Q260 718 272 713Q290 707 300 691Q313
670 341 625T384 556Q427 498 504 342L538 273Q590 505 619 650Q625 679 649 699T703 720T748 701T759 652Q731 516 633 73Q626 45 603 26T551 4V4Z" />
<glyph unicode="O" glyph-name="O" horiz-adv-x="769" d="M364 1Q274 1 203 37T90 141T49 297Q49 412 105 510T258 667T468 725Q494 725 506 723T543 713L568 705Q587 699 607 692T641 676Q698 637 730 571T762 421Q762 313 708 216T562 60T364 1V1ZM387 136Q454
136 507 172T591 268T622 394Q622 441 601 492T547 564Q535 572 503 579Q496 581 488 583T471 588Q445 590 427 590Q364 590 309 553T222 453T190 322Q190 231 241 184T387 136V136Z" />
<glyph unicode="P" glyph-name="P" horiz-adv-x="635" d="M176 63Q170 34 145 14T91 -7T46 13T36 63T95 354T159 645Q166 674 191 693T245 713Q250 713 255 712Q257 712 260 713Q386 733 454 729Q589 720 640 634Q680 568 665 493T592 367Q543 324 479 300T354
273Q333 272 311 273T256 277T220 281Q190 130 176 63V63ZM377 413Q414 414 450 427T506 460Q516 469 520 476T525 505T514 546Q490 585 416 589Q366 592 284 580Q269 513 249 421H250L296 416Q321 414 340 413T377 413V413Z" />
<glyph unicode="Q" glyph-name="Q" horiz-adv-x="756" d="M580 -9Q526 15 488 37Q456 23 427 14Q348 -8 294 -2T177 37Q119 70 85 121T45 232T52 357T98 483T180 597T290 689Q306 699 328 709T373 726T396 735Q440 754 467 726L478 728Q524 734 547 733Q589 732
621 715T684 662Q735 604 749 515T739 329T653 158Q642 145 629 132L660 117Q683 106 689 80T678 28T633 -9T580 -9V-9ZM346 156Q328 174 333 203Q336 230 360 252T412 276T458 258Q490 225 519 201Q539 216 550 229Q607 299 613 402T570 560Q539 595 514 596Q501
596 468 592Q416 585 385 582Q373 582 362 585Q354 581 346 577Q297 546 259 501Q221 454 204 406T185 310T205 223Q225 183 265 161Q321 131 365 135L346 156Z" />
<glyph unicode="R" glyph-name="R" horiz-adv-x="693" d="M468 53Q466 137 462 186L461 208Q458 254 432 278T358 303Q348 303 318 301Q282 299 257 299H227L179 69Q172 36 149 18T97 0Q66 0 50 19T39 69L101 369L158 637Q165 666 189 685T243 707L278 710Q356
716 384 716Q705 716 705 547Q705 482 660 431T539 357Q579 326 595 263T611 87Q612 49 585 25T524 1Q501 1 485 14T468 53V53ZM258 427Q310 433 354 433H415Q447 433 481 444T538 473T561 512Q561 549 523 565T394 581Q324 581 285 578Q271 512 255 427H258V427Z"
/>
<glyph unicode="S" glyph-name="S" horiz-adv-x="612" d="M268 -8Q150 -8 91 42T32 173Q32 232 57 261T118 290Q141 290 158 277T175 238Q175 236 172 200L170 180Q170 157 198 141T282 125Q317 125 349 137T402 169T422 211Q422 229 408 245T357 276L318 291Q301
297 281 304T239 321Q89 382 89 500Q89 559 128 611T231 694T367 725Q473 725 540 674T607 531Q607 482 586 456T530 429Q499 429 481 445T462 488Q462 514 461 524T452 545Q438 563 408 576T336 591Q287 591 259 571T231 524Q231 498 252 483T334 443Q350 437
358 433Q416 411 456 391Q513 363 539 327T566 235Q566 167 522 112T408 24T268 -8V-8Z" />
<glyph unicode="T" glyph-name="T" horiz-adv-x="577" d="M309 69Q302 40 278 20T224 0T179 21T170 71Q177 102 229 354Q255 483 280 579Q200 578 145 578Q116 578 100 597T88 645T118 693T172 713Q236 713 384 714T596 715Q625 715 641 697T653 650T623 601T570
580Q507 580 420 579Q396 487 369 355Q317 100 309 69V69Z" />
<glyph unicode="U" glyph-name="U" horiz-adv-x="714" d="M299 -1Q232 -1 177 24T89 98T56 218Q56 284 70 350T117 527Q149 642 151 648Q159 677 183 697T236 717Q260 717 275 702T290 662Q290 645 284 619T268 563L258 531Q230 435 213 357T196 241Q196 192 231
163T329 134Q401 134 459 199T550 402Q563 455 576 548L592 645Q599 679 623 697T677 716Q706 716 722 698T732 649Q724 611 715 547Q701 450 688 398Q595 -1 299 -1V-1Z" />
<glyph unicode="V" glyph-name="V" horiz-adv-x="615" d="M279 -1Q250 -13 225 -2T195 35Q175 126 162 211L130 426Q108 569 99 625Q96 652 113 678T160 714T213 712T242 673L274 462Q292 327 304 254Q458 524 558 678Q574 704 603 715T657 715T686 676T674 622Q606
520 552 428L432 218Q365 99 330 42Q316 17 291 5Q285 1 279 -1V-1Z" />
<glyph unicode="W" glyph-name="W" horiz-adv-x="924" d="M183 -1Q156 -5 137 11T119 53Q118 144 112 331Q105 505 100 636Q100 664 121 688T171 718T221 708T242 664Q248 552 257 281Q377 483 496 674Q508 694 528 705T570 717Q594 717 611 703T628 606L656 405L670
274Q683 299 750 443T863 671Q877 698 905 712T959 718T994 685T989 631Q943 548 890 432T820 285L759 166L702 53Q691 32 671 18T630 2Q602 -5 581 7T556 44Q531 188 513 363Q510 393 503 440L268 44Q254 21 231 9T183 -1V-1Z" />
<glyph unicode="X" glyph-name="X" horiz-adv-x="593" d="M94 28Q73 5 44 1T-5 14T-23 58T1 110L231 356Q146 520 107 616Q96 638 106 664T142 705T194 716T230 688Q269 608 335 464L535 687Q557 710 586 714T635 701T652 656T628 605L398 352Q478 212 531 99Q541
76 530 51T493 10T442 0T407 29Q356 121 294 243L94 28V28Z" />
<glyph unicode="Y" glyph-name="Y" horiz-adv-x="593" d="M237 -1Q206 -1 190 17T180 66L186 95Q200 174 212 222L225 276L164 436Q110 578 94 625Q87 651 97 672T128 705T171 718Q187 718 202 706T223 676L230 655Q244 615 267 550T317 418L391 512L540 684Q569
717 603 717Q628 717 645 701T663 661Q663 635 642 610Q634 599 609 571T542 494L489 434Q410 344 364 285Q340 167 344 184L320 70Q314 36 290 18T237 -1V-1Z" />
<glyph unicode="Z" glyph-name="Z" horiz-adv-x="617" d="M250 0Q114 0 27 4Q0 5 -14 26T-21 75Q-14 103 12 123Q47 155 131 243Q435 521 478 577Q260 573 161 580Q133 582 120 603T114 653T146 700T198 717Q263 713 333 712T495 713T632 715Q659 715 674 695T684
647Q678 621 659 602Q657 599 655 596Q609 527 560 477T220 162L195 137Q228 137 275 135Q467 139 506 139Q533 139 548 119T558 72T528 24T477 4Q440 4 250 0V0Z" />
<glyph unicode="[" glyph-name="bracketleft" horiz-adv-x="389" d="M194 -194Q190 -193 179 -192T163 -191Q133 -187 111 -183Q23 -164 5 -106Q-6 -72 11 -25Q14 -17 17 -11T21 -2T22 2L23 8L42 98Q44 108 51 144T71 240T92 344Q115 460 127 514Q134 548 139
566Q141 577 144 584L146 593Q149 604 156 615Q208 692 284 713Q299 717 319 719T360 723T384 725Q413 729 432 711T450 665T424 613T372 587Q352 584 335 583T311 582T295 579Q286 576 278 567L277 563L267 514Q255 461 232 346Q222 300 211 241T192 145T182 98L163
6Q159 -10 147 -40Q155 -43 169 -46Q184 -49 207 -52Q212 -53 220 -53T234 -54T244 -56Q271 -60 283 -83T286 -134T249 -180T194 -194V-194Z" />
<glyph unicode="\" glyph-name="backslash" horiz-adv-x="478" d="M232 45Q191 350 142 620Q136 646 152 673T198 711T252 712T282 674Q333 400 374 91Q377 64 359 38T312 3T260 5T232 45V45Z" />
<glyph unicode="]" glyph-name="bracketright" horiz-adv-x="344" d="M3 -186Q-27 -190 -46 -173T-64 -127T-40 -75T12 -48Q29 -46 58 -46Q63 -30 70 -8Q87 54 110 162Q126 238 147 349T168 461Q171 473 176 498T183 536Q187 551 197 578Q170 578 156 580Q129
585 117 608T116 660T154 706T209 718Q215 717 216 717T227 717T250 718Q313 717 337 678T339 577L331 559Q329 551 328 548T325 543T323 536Q321 524 316 499T308 461L287 350Q266 238 250 162Q226 50 207 -18Q195 -61 184 -87Q176 -104 170 -117Q155 -142 135
-157Q96 -185 42 -186H21Q12 -186 11 -186T3 -186V-186Z" />
<glyph unicode="^" glyph-name="asciicircum" horiz-adv-x="527" d="M334 522Q260 422 191 313Q175 288 147 278T97 278T70 314T80 365Q185 528 300 675Q304 680 309 685Q323 709 348 720Q374 733 398 725T431 693Q466 582 523 365Q529 341 515 315T473 278T422
275T391 309L334 522Z" />
<glyph unicode="_" glyph-name="underscore" horiz-adv-x="568" d="M-53 -176Q-82 -176 -98 -156T-108 -106T-77 -57T-24 -36H464Q493 -36 509 -56T519 -106T488 -155T434 -176H-53V-176Z" />
<glyph unicode="`" glyph-name="grave" horiz-adv-x="258" d="M272 570Q244 572 219 594L133 675Q106 700 103 727T117 774T161 795T214 771L303 686Q327 663 333 636T320 589T272 570V570Z" />
<glyph unicode="a" glyph-name="a" horiz-adv-x="574" d="M181 -1Q102 -1 61 42T19 154Q19 243 70 333T201 481T359 540Q419 540 459 510Q481 519 497 519Q531 519 548 499T559 445L478 65Q471 33 453 17T408 0Q379 0 361 21T347 74L348 82Q261 -1 181 -1V-1ZM224
135Q249 135 273 149T325 187Q365 223 377 226L410 377Q402 388 385 396T346 404Q307 404 264 369T192 285T162 196Q162 167 180 151T224 135V135Z" />
<glyph unicode="b" glyph-name="b" horiz-adv-x="586" d="M64 -5Q34 -5 21 17T15 67Q76 333 138 648Q145 681 169 699T221 718Q252 718 268 698T279 650L249 490Q294 531 366 531Q420 531 463 502T529 425T553 324Q553 232 513 157T407 37T264 -7Q218 -7 183 11T132
61L127 45Q121 22 104 9T64 -5V-5ZM283 129Q318 129 347 149T393 208T410 294Q410 340 386 367T328 395Q307 395 295 389T256 365L217 338L189 211Q193 205 196 199T204 185Q207 179 209 173T214 162Q221 149 240 139T283 129V129Z" />
<glyph unicode="c" glyph-name="c" horiz-adv-x="545" d="M321 13Q272 -3 229 1T148 21Q89 47 56 101T32 227Q40 286 76 347T166 453Q204 485 246 504T339 529T434 512Q459 501 484 476Q485 474 494 464L509 449Q528 431 526 404T501 354T449 328T400 342Q398
343 369 374Q359 384 354 387Q304 409 248 360Q219 335 198 301T174 237Q170 209 184 184T230 146Q262 133 287 136T330 155Q337 160 347 176Q378 222 379 224Q397 249 426 257T479 254T505 214T490 162Q486 156 482 150T472 135T463 122Q439 84 413 62Q371 27
321 13V13Z" />
<glyph unicode="d" glyph-name="d" horiz-adv-x="587" d="M412 -7Q386 -7 372 12T362 65Q333 33 298 14T214 -5Q177 -5 143 6T85 39Q58 64 44 104T30 193Q30 276 74 357T193 489T349 540Q401 540 443 522Q454 571 460 602T469 647Q475 679 499 698T554 717Q584
717 600 698T610 649Q558 385 505 135L491 68Q484 32 463 13T412 -7V-7ZM256 128Q297 128 325 152Q338 163 345 174T366 207Q375 222 386 230L410 358Q402 372 381 388Q359 405 319 405Q280 405 247 378T195 308T175 224Q175 186 191 157T256 128V128Z" />
<glyph unicode="e" glyph-name="e" horiz-adv-x="563" d="M330 5Q258 -4 207 3T120 36T61 103T37 227Q39 274 57 314Q146 526 355 530Q546 529 550 323Q552 280 528 253Q499 219 443 215Q417 212 365 211T171 219Q161 127 264 112Q325 108 354 131Q401 170 427
171T468 161T486 132T480 98Q473 83 449 60Q425 41 402 28T330 5V5ZM190 314Q225 313 263 312T356 311T427 319Q430 335 423 359T378 405Q333 428 270 401Q209 375 190 314V314Z" />
<glyph unicode="f" glyph-name="f" horiz-adv-x="388" d="M114 0Q83 0 66 20T58 74Q80 167 107 288Q119 344 124 374H112Q87 374 74 386T60 421Q60 454 81 482T131 510H145L157 565Q173 640 221 681T339 725Q401 725 440 705T479 648Q479 619 457 595T408 571Q395
571 375 579Q353 589 334 589Q312 589 302 577T289 541Q288 533 287 527T284 514L334 513Q361 512 375 498T390 461Q390 426 364 400T300 374H263Q249 298 242 266Q220 162 197 71Q189 37 167 19T114 0V0Z" />
<glyph unicode="g" glyph-name="g" horiz-adv-x="572" d="M196 -206Q80 -206 31 -152Q13 -132 6 -119T-3 -81Q-4 -54 14 -30T64 -5Q86 -5 101 -13T126 -40Q140 -65 157 -75T204 -86Q251 -86 288 -46T349 57Q311 24 279 11T205 -2Q160 0 121 26T58 98T34 205Q34
291 72 365T180 485T335 530Q364 530 391 522T436 500Q448 514 465 521T502 529Q528 529 544 511T556 466Q538 354 486 118L477 78Q459 -6 414 -71T310 -171T196 -206V-206ZM249 127Q290 127 339 176Q348 185 356 196T373 218Q393 310 403 367Q389 371 376 377L344
393Q328 400 310 400Q267 400 235 375T186 310T169 230Q169 180 192 154T249 127V127Z" />
<glyph unicode="h" glyph-name="h" horiz-adv-x="557" d="M77 -1Q47 -1 32 17T22 68Q32 114 39 156Q52 225 78 350Q98 445 114 529Q123 580 140 659Q146 689 170 708T225 728Q255 728 270 711T280 666Q267 603 254 526L245 480Q271 503 302 516T375 530Q443 530
483 493T523 396Q523 332 507 263Q499 224 488 175T462 75Q450 36 430 18T377 -1Q343 -1 329 19T321 67L348 172L367 243Q384 317 384 352Q384 372 369 385T326 398Q296 398 267 386T219 353Q190 203 189 200L162 68Q156 36 131 18T77 -1V-1Z" />
<glyph unicode="i" glyph-name="i" horiz-adv-x="241" d="M9 68Q51 280 96 465Q104 494 129 513T183 532T227 510T235 459Q189 272 149 70Q143 41 119 21T66 0T20 19T9 68V68ZM260 699Q277 679 271 650T240 601T186 580T141 600T130 650T162 699T216 720T260 699V699Z" />
<glyph unicode="j" glyph-name="j" horiz-adv-x="253" d="M-82 -221Q-111 -221 -129 -206T-148 -162Q-148 -134 -131 -111T-79 -80Q-45 -72 -27 -57T-1 -15Q13 33 36 137L59 263L82 396L93 460Q99 495 123 513T177 531Q201 531 218 517T235 478Q235 458 224 392L218
358Q204 274 174 135Q135 -47 104 -112Q81 -160 28 -190T-82 -221V-221ZM175 580Q153 580 137 596T120 636Q120 668 145 695T207 723Q231 723 247 707T264 665Q264 632 239 606T175 580V580Z" />
<glyph unicode="k" glyph-name="k" horiz-adv-x="524" d="M338 20Q273 105 234 189L186 151Q183 150 181 148L164 67Q157 38 132 18T78 -2T34 19T24 69Q65 249 137 645Q142 674 166 695T219 717T265 700T278 651Q247 476 221 339Q315 415 420 507Q445 528 473
529T519 510T532 462T502 411L357 289Q394 200 458 116Q474 96 468 67T436 18T382 -2T338 20V20Z" />
<glyph unicode="l" glyph-name="l" horiz-adv-x="251" d="M154 67Q147 38 122 18T68 -2T24 19T14 69Q56 260 75 350L137 646Q143 675 168 695T222 716T267 696T277 646Q260 566 236 452T193 245T154 67V67Z" />
<glyph unicode="m" glyph-name="m" horiz-adv-x="852" d="M452 63Q445 36 421 17T371 -1T329 20T321 67Q325 84 336 126L351 184Q357 209 364 246T373 308Q373 312 374 316Q375 337 374 353Q372 372 357 384T314 399Q287 402 262 393T221 366Q220 363 216 355L215
351Q178 169 157 70Q151 41 127 21T73 0T28 20T17 70Q38 165 97 458Q103 487 127 507T181 529Q209 529 226 510Q290 537 353 531Q429 524 472 476Q514 507 563 520T656 529Q717 523 760 488T811 391Q814 357 807 301T792 213T770 123T755 64Q748 37 724 18T674
0T632 21T624 68Q627 80 640 133T660 213T672 283T676 351Q674 370 659 382T617 397Q590 400 564 391T524 364Q522 361 519 353Q518 350 517 347L514 339Q513 336 512 333Q509 324 507 317Q503 286 495 242T480 171T464 109T452 63V63Z" />
<glyph unicode="n" glyph-name="n" horiz-adv-x="559" d="M381 -2Q348 -2 334 19T326 67L341 127Q357 189 361 207Q382 295 382 335Q382 365 364 382T313 399Q284 399 259 387T215 354L199 269Q162 80 160 70Q151 37 129 19T79 1Q45 1 31 24T23 81Q78 335 94 455Q99
492 118 511T168 530Q193 530 210 512T224 467Q288 529 367 529Q435 529 476 485T518 372Q518 301 496 208Q494 200 473 112L463 73Q454 36 432 17T381 -2V-2Z" />
<glyph unicode="o" glyph-name="o" horiz-adv-x="582" d="M254 0Q193 0 143 27T65 106T37 227Q38 304 75 374T177 486T323 529Q351 529 366 525T401 511Q416 502 430 497Q483 477 515 424T548 310Q548 231 509 160T403 44T254 0V0ZM276 130Q310 130 340 152T389
212T408 293Q408 335 380 360Q369 370 345 378Q332 383 324 388T311 403Q305 403 302 403T296 402Q265 396 238 374T193 317T176 240Q176 187 203 159T276 130V130Z" />
<glyph unicode="p" glyph-name="p" horiz-adv-x="577" d="M111 -132Q104 -161 80 -181T26 -201T-18 -180T-28 -130Q12 43 100 458Q106 487 131 507T185 528Q223 528 237 495Q357 555 446 511Q524 471 542 369Q549 327 543 282T516 188T454 96T356 28Q261 -15 198
5Q171 13 148 31Q131 -46 111 -132V-132ZM266 139Q280 134 321 152Q364 172 387 218T403 319Q392 368 361 384Q330 400 294 387T210 319L187 209Q199 172 220 156T266 139V139Z" />
<glyph unicode="q" glyph-name="q" horiz-adv-x="575" d="M352 -201Q321 -201 304 -181T293 -130L335 55Q283 -1 194 -1Q123 -1 78 48T32 192Q32 284 70 362T171 485T301 530Q348 530 382 514T433 472Q439 495 461 512T506 530Q536 530 551 509T562 461Q510 201
432 -134Q424 -167 402 -184T352 -201V-201ZM256 135Q291 135 323 159T376 232L397 330Q385 358 361 376T301 394Q266 394 236 373T188 312T170 223Q170 177 191 156T256 135V135Z" />
<glyph unicode="r" glyph-name="r" horiz-adv-x="399" d="M72 0Q44 0 27 21T17 75L95 449Q103 487 127 508T182 529Q210 529 224 510T235 462Q262 487 311 509T387 531Q412 531 427 516T442 477Q442 452 425 430T368 399Q278 380 212 335Q204 312 192 249L157
71Q149 40 126 20T72 0V0Z" />
<glyph unicode="s" glyph-name="s" horiz-adv-x="489" d="M202 -1Q141 -1 96 18T28 69T5 136Q5 167 26 188T74 209Q96 209 111 199T133 171Q144 143 166 131T228 119Q263 119 284 130T305 160Q305 175 288 186T240 209L157 244Q120 261 95 292T70 367Q70 411 99
448T176 508T278 531Q330 531 365 520T429 486Q474 452 474 410Q474 382 453 362T406 342Q371 342 344 372Q324 393 302 402T252 412Q231 412 218 404T205 384Q205 371 215 361T251 340L272 331Q334 305 358 292Q438 250 438 173Q438 129 406 89T320 24T202 -1V-1Z"
/>
<glyph unicode="t" glyph-name="t" horiz-adv-x="343" d="M98 39Q69 59 56 78T42 126Q42 178 76 324L87 373Q92 396 97 415Q65 415 50 429T34 469Q34 499 55 520T111 542H128L134 569L138 589Q156 674 229 674Q259 674 273 654T281 603L268 543H301Q331 543 347
529T364 491Q364 460 338 438T262 415H235L216 334Q191 215 185 169Q193 160 209 151T240 135Q279 115 279 78Q279 44 259 23T206 1Q181 1 157 9T98 39V39Z" />
<glyph unicode="u" glyph-name="u" horiz-adv-x="558" d="M196 -1Q155 -1 120 19T62 79T40 172Q40 217 50 263T77 364Q82 382 89 401T102 439L113 471Q122 499 143 513T189 528Q222 528 237 506T241 455L223 403Q198 329 187 287T175 203Q175 169 191 150T235
131Q252 131 266 138T293 157T318 179Q327 188 339 202T353 218Q383 349 404 459Q411 492 435 510T488 529Q518 529 534 510T544 461Q496 219 461 60Q454 31 435 16T386 0Q361 1 345 22T331 73Q305 39 270 19T196 -1V-1Z" />
<glyph unicode="v" glyph-name="v" horiz-adv-x="467" d="M100 72Q95 140 83 210T51 369L39 428Q34 451 42 475T69 514T115 530Q137 530 151 519T169 487L180 423Q203 293 210 228L272 327Q340 440 383 498Q408 529 443 529Q466 529 483 514T500 476Q500 459 479
427Q448 380 400 310L348 234Q291 150 235 59Q215 26 199 13T156 -1Q106 -1 100 72V72Z" />
<glyph unicode="w" glyph-name="w" horiz-adv-x="657" d="M412 -2Q387 -2 372 12T354 51L330 267L232 72Q194 -3 137 -3Q108 -3 92 17T72 88Q59 229 51 424Q49 466 76 496T140 526Q192 526 193 467Q194 390 199 268L200 241Q248 328 308 458Q322 488 344 503T390
518Q413 518 428 505T445 462L457 252L543 458Q559 495 580 510T631 526Q668 526 679 498T673 430Q610 286 563 186T499 55Q485 27 461 13T412 -2V-2Z" />
<glyph unicode="x" glyph-name="x" horiz-adv-x="444" d="M201 155Q161 105 143 80L107 33Q78 -2 41 -2Q16 -2 -2 15T-20 57Q-20 83 0 107Q27 141 87 207L139 265L58 405Q50 419 46 429T42 454Q42 486 65 507T121 529Q141 529 154 520T178 491L238 365L344 498Q370
530 405 530Q430 530 447 513T465 471Q465 442 439 413L297 258L371 120Q381 102 384 92T387 70Q387 39 362 18T309 -3Q292 -3 278 6T257 31L201 155Z" />
<glyph unicode="y" glyph-name="y" horiz-adv-x="466" d="M24 -181Q-5 -200 -25 -200Q-48 -200 -64 -184T-80 -144Q-80 -113 -48 -85L-13 -59Q39 -21 54 -5Q89 28 110 53Q84 193 43 438Q38 472 58 501T113 530Q171 530 179 467L215 189Q245 237 355 476Q367 502
384 515T422 529Q457 529 471 502T468 434Q401 282 348 193L313 135Q288 93 235 21Q192 -36 141 -87Q123 -105 86 -135T24 -181V-181Z" />
<glyph unicode="z" glyph-name="z" horiz-adv-x="497" d="M53 0Q22 0 4 14T-14 49Q-14 68 -6 84T21 121Q37 139 83 186T187 292L287 394H231Q201 394 172 394T114 394Q86 395 70 409T53 446Q53 476 76 498T136 521L416 520Q449 520 469 504T489 461Q489 437 476
415T435 365L198 127Q278 127 390 132Q417 134 431 120T446 83Q446 54 426 31T370 5Q272 0 212 0H53V0Z" />
<glyph unicode="{" glyph-name="braceleft" horiz-adv-x="496" d="M306 -202Q195 -191 143 -153Q70 -98 80 22Q83 53 98 108Q112 151 113 168Q114 171 116 187L117 194Q93 199 81 204Q58 213 52 238T60 289Q74 312 98 324Q102 328 107 331Q109 332 150 356Q162
363 166 367Q176 378 191 419Q197 435 208 470T226 523Q291 703 431 716Q461 719 493 703Q494 703 509 695Q515 693 517 692Q541 683 548 659T541 609T501 571T450 566Q440 570 428 576Q427 576 423 578T415 582L412 584Q395 582 382 566T351 503L318 400Q291 327
255 289Q248 282 242 276Q253 254 252 222Q252 212 250 198T248 182Q245 152 228 97Q215 55 214 38Q209 -20 239 -42Q266 -63 346 -70Q372 -73 385 -94T390 -142T357 -186T306 -202V-202Z" />
<glyph unicode="|" glyph-name="bar" horiz-adv-x="246" d="M270 61Q268 32 247 13T197 -6T149 17T130 67Q133 133 134 215T136 339T137 510T136 658Q136 687 156 707T206 728T255 708T276 658V398Q276 356 276 291T274 171T270 61V61Z" />
<glyph unicode="}" glyph-name="braceright" horiz-adv-x="457" d="M61 -189Q17 -206 -9 -203T-48 -178T-52 -129T-17 -85Q-1 -75 20 -62L52 -45Q96 -32 104 -22Q116 -8 123 3T135 28L143 48Q145 55 149 74L155 102Q174 183 235 243Q227 252 222 262Q216 273 212
287T205 312T202 341L203 368Q203 378 206 396T209 421T213 446T218 467Q235 557 218 576L210 579Q208 580 185 580T159 582T155 584Q141 588 132 592Q108 602 103 627T113 677T156 713T246 714L258 711Q274 705 275 705Q308 695 325 676Q345 655 354 629T363 570T360
520T350 470Q340 410 338 384T343 342Q345 340 352 336L364 327Q375 320 380 314Q386 309 391 302Q396 297 399 291Q412 269 403 242T369 198T328 167T303 140T292 120T287 99L281 74Q276 50 272 38T260 2T236 -46Q221 -69 201 -92Q172 -126 120 -156L87 -174Q71
-183 61 -189V-189Z" />
<glyph unicode="~" glyph-name="asciitilde" horiz-adv-x="704" d="M473 177Q459 175 444 174T417 173T391 175T368 180T345 186T326 193T307 200T291 207Q255 221 235 223T193 218Q188 216 179 209Q145 183 143 182Q118 164 92 167T53 191T48 240T83 284L92 292Q96
295 101 299T111 306Q139 328 164 338Q195 351 224 354T280 354T323 344Q336 341 362 331Q380 324 386 322T405 315T425 309T440 306T457 304T473 307Q479 308 482 310T497 318T527 332Q553 343 577 334T608 301T600 250T558 212L554 210Q551 209 545 206L534 200Q527
197 520 194T505 187T488 182L473 177V177Z" />
<glyph unicode="&#xa0;" glyph-name="uni00A0" horiz-adv-x="270" />
<glyph unicode="&#xa1;" glyph-name="exclamdown" horiz-adv-x="279" d="M18 -14Q33 74 45 139T72 264Q79 293 103 313T157 333T201 312T211 262Q197 202 185 138T157 -11T135 -135Q129 -164 105 -185T52 -206T6 -188T-6 -139L18 -14ZM228 492Q245 472 239 443T208
394T154 373T109 393T98 443T130 492T184 513T228 492V492Z" />
<glyph unicode="&#xa2;" glyph-name="cent" horiz-adv-x="570" d="M194 -69Q178 -97 150 -109T96 -112T64 -76T72 -23L94 18Q44 60 33 132Q21 205 43 277Q79 395 173 464Q254 524 350 522L366 555Q379 583 407 597T462 605T497 572T493 519L477 486Q489 477 500
466T516 446L531 423L543 403Q558 382 550 353T517 305T463 287T420 311L403 334Q347 217 298 124Q307 127 316 132Q325 137 341 155L362 178Q378 195 388 205Q412 228 441 230T488 215T504 168T477 117Q470 110 459 98L437 74Q402 36 369 16Q306 -22 228 -23H220L194
-69V-69ZM177 170Q224 261 281 378Q261 372 243 359Q198 327 180 264Q163 209 177 170V170Z" />
<glyph unicode="&#xa3;" glyph-name="sterling" horiz-adv-x="623" d="M415 -16Q368 -18 341 -14T294 3Q283 10 282 11Q271 15 246 19Q224 22 162 18L135 8Q108 -1 88 0Q38 2 24 45Q10 91 50 134Q66 151 92 165Q94 167 102 171T114 177V178Q159 226 165 265Q141
265 120 264Q91 264 75 284T63 333Q69 361 92 381T144 404L145 405Q127 520 216 611Q256 651 310 673T419 698Q476 701 523 679T593 608Q603 582 604 544Q604 543 604 520Q604 510 605 504Q607 477 588 452T540 418T488 422T462 464Q461 475 461 492L462 500V513Q461
527 459 532Q447 561 395 559Q368 558 345 548T308 525Q291 508 286 492T286 453Q288 438 295 408Q363 410 404 411Q433 411 449 391T460 342T430 293T376 271Q345 271 305 270Q296 213 261 160Q278 159 293 157Q335 151 359 141Q374 135 389 124Q401 122 439 124Q445
124 449 125T465 131Q477 135 497 140Q527 148 549 134T572 91T554 38T505 6L498 4L481 -2Q472 -5 461 -8T437 -13T415 -16V-16Z" />
<glyph unicode="&#xa4;" glyph-name="currency" horiz-adv-x="580" d="M139 113Q114 93 85 93T41 114T32 164T64 213L97 240Q86 293 105 353Q116 393 140 429L109 464Q92 484 97 513T127 563T181 585T227 566L256 532L266 536Q297 548 334 546Q335 546 353 545H364Q403
546 418 515V516L488 567Q514 586 542 584T585 560T592 509T557 461L517 432Q543 388 535 334T494 239L515 212Q529 191 523 162T491 114T437 94T392 116L375 139Q324 115 273 114T170 138L139 113V113ZM250 268Q279 250 308 254T364 280Q413 321 383 355Q375 364
351 373Q346 375 342 376T332 380T322 384Q301 392 287 398L282 402Q253 382 241 341Q233 315 236 296T250 268V268Z" />
<glyph unicode="&#xa5;" glyph-name="yen" horiz-adv-x="616" d="M334 67Q327 38 302 18T248 -2T204 19T194 69Q210 140 219 182H116Q87 182 71 202T61 252T92 301T146 322H216L206 351L134 352Q106 353 90 373T80 423Q87 450 109 469T158 491L125 580Q115 605
128 633T169 676T223 684T260 652L338 434Q431 545 538 659Q559 682 589 687T638 675T657 630T634 577L556 492Q580 488 593 469T600 422Q593 393 569 373T515 353L435 354L405 319Q453 317 498 316Q526 315 541 294T549 243T517 195T462 176L358 180Q349 133 334
67V67Z" />
<glyph unicode="&#xa6;" glyph-name="brokenbar" horiz-adv-x="245" d="M234 49Q233 28 218 14T183 0T148 16T134 51Q135 74 135 116T137 192T139 257Q140 278 155 292T191 305T226 289T239 253L237 188Q236 154 236 113T234 49V49ZM135 478Q135 596 137 666Q138
687 153 701T188 715T223 699T237 664Q235 594 235 478Q235 457 221 443T185 428T150 442T135 478V478Z" />
<glyph unicode="&#xa7;" glyph-name="section" horiz-adv-x="604" d="M242 -198Q182 -211 126 -194T44 -125Q32 -100 32 -63L33 -43Q33 -35 33 -32Q31 -4 50 21T98 55T150 49T175 8Q176 -3 176 -18Q175 -19 175 -25T175 -35V-43Q181 -55 199 -61T242 -62Q268 -57
283 -45T303 -19Q313 11 277 48Q263 62 246 76T200 109T158 139Q139 152 127 163T98 192T72 232T63 278Q61 357 153 432Q148 448 147 466Q144 546 193 603T313 683Q352 696 393 696T473 683T536 639Q555 615 559 575Q560 567 560 561T560 552T561 545Q567 518 550
492T503 454T450 454T420 493Q420 496 416 536Q417 538 416 540Q404 552 381 555T330 551Q307 544 298 533T290 502Q290 492 304 478L307 474L327 458Q341 448 376 426L434 390Q512 338 535 285Q573 198 498 96Q478 70 446 47Q452 8 438 -35Q416 -102 361 -144T242
-198V-198ZM388 160Q410 191 402 209Q391 234 339 269L283 303Q254 321 234 335Q211 318 206 307Q211 291 258 256L294 230Q324 210 346 193T385 158L388 160Z" />
<glyph unicode="&#xa8;" glyph-name="dieresis" horiz-adv-x="341" d="M342 601Q312 601 294 617T275 661Q275 698 301 723T362 748Q392 748 411 732T430 688Q430 651 404 626T342 601V601ZM154 601Q124 601 106 617T87 661Q87 698 113 723T174 748Q204 748 223
732T242 688Q242 651 216 626T154 601V601Z" />
<glyph unicode="&#xa9;" glyph-name="copyright" horiz-adv-x="803" d="M312 1Q242 14 187 51T103 145T70 265T96 402T193 540Q312 658 425 676Q434 677 447 678Q470 693 493 688Q500 687 525 683T572 674T613 661Q687 628 730 543T770 372Q765 290 723 214T616
88T470 13T312 1V1ZM352 107Q405 97 459 113T557 164T630 250Q657 300 660 354Q663 416 631 478Q599 541 552 561Q534 569 504 574Q495 571 486 571Q473 570 447 571T419 570Q350 560 263 474Q210 422 191 361T185 249T242 158T352 107V107ZM411 165Q372 160 342
169T294 195T264 237T250 288T250 342T264 392Q280 436 313 471T396 519Q491 546 591 463Q608 449 607 425T588 381T545 357T503 367Q442 417 405 407Q386 401 375 373Q359 331 374 305T421 281Q429 282 446 290L469 302Q485 310 497 315Q522 325 542 317T568 286T561
242T523 209Q516 206 505 200L480 188Q441 168 411 165V165Z" />
<glyph unicode="&#xaa;" glyph-name="ordfeminine" horiz-adv-x="419" d="M197 397Q137 397 106 435T88 540Q99 590 136 631T222 696T318 720Q386 721 416 688Q425 678 429 662T428 629Q441 626 436 601Q434 591 423 569Q412 545 409 530Q406 516 412 505T433
482Q452 465 448 445Q444 425 427 412T387 398Q359 398 338 416T315 457Q263 397 197 397V397ZM234 499Q260 499 285 519T317 563Q323 586 333 595Q330 596 326 599T320 604Q312 614 311 614Q304 618 291 618Q257 618 229 598T194 548Q189 524 200 512T234 499V499Z"
/>
<glyph unicode="&#xab;" glyph-name="guillemotleft" horiz-adv-x="654" d="M442 98Q373 153 350 177Q308 222 318 270Q320 279 324 288Q342 333 411 374Q427 383 465 404Q505 425 524 436Q528 438 531 439L532 440Q559 455 586 449T623 419T621 366T581 322L487
271Q506 254 553 218Q573 202 573 174T551 121Q538 106 519 98Q500 86 479 86T442 98V98ZM186 99Q116 154 93 178Q44 231 67 289Q85 334 154 375Q170 384 209 405Q248 426 267 437Q295 452 322 446T359 416T357 363T316 319L222 268Q242 251 288 215Q309 199 309
171T287 118T236 89T186 99V99Z" />
<glyph unicode="&#xac;" glyph-name="logicalnot" horiz-adv-x="697" d="M468 164Q485 254 491 273Q247 269 135 273Q106 274 91 295T83 346T115 394T170 413Q279 409 571 413Q576 413 580 412Q589 414 598 414Q627 412 641 391T649 340Q641 315 636 293T629 267T625
252L622 237Q621 234 617 212T609 168Q603 139 579 118T526 97T480 115T468 164V164Z" />
<glyph unicode="&#xad;" glyph-name="uni00AD" horiz-adv-x="450" d="M308 200Q279 200 263 220T253 270T284 319T338 340H505Q534 340 550 320T560 270T529 221T475 200H308V200Z" />
<glyph unicode="&#xae;" glyph-name="registered" horiz-adv-x="782" d="M298 -8Q219 3 165 41T87 133T62 249T82 377Q101 441 141 500T234 608T359 684T507 713Q524 713 534 701Q537 701 549 699T569 695T590 691T614 686T635 680T657 672L674 663Q717 635 755
565Q785 506 785 435T760 298T686 171T579 67T445 3T298 -8V-8ZM328 76Q381 69 437 85T538 134T621 213T677 310T697 415T674 515Q645 569 616 587Q608 593 592 598T565 605T528 612T495 618Q484 620 478 627Q369 623 284 548T165 368Q143 299 150 239T203 133T328
76V76ZM443 187Q439 203 436 218T432 235T429 246L426 256Q425 258 420 272L411 301L372 297H361Q351 252 340 210Q334 188 315 173T275 159T241 176T235 214Q253 286 298 512Q303 534 321 550T362 566H365Q460 585 535 563T628 485Q639 447 621 412Q603 376 564
351Q546 339 522 329Q534 295 548 229Q553 209 541 189T507 160T466 158T443 187V187ZM383 402Q384 403 386 403Q480 410 518 435Q520 437 523 438Q513 451 481 462T396 467Q386 422 383 402V402Z" />
<glyph unicode="&#xaf;" glyph-name="overscore" horiz-adv-x="383" d="M203 613Q184 613 158 616Q130 615 111 630T90 672T107 715T154 731Q208 728 275 730T405 732Q433 732 451 719T470 679T453 635T407 617Q344 613 292 613H203V613Z" />
<glyph unicode="&#xb0;" glyph-name="degree" horiz-adv-x="373" d="M157 427Q120 449 105 492T105 587T172 678Q196 697 232 704Q241 706 248 707T259 709Q284 716 301 704Q304 703 307 701Q313 698 323 694Q345 686 346 685Q382 671 398 648Q420 620 416 583T392
518T347 468T291 431T224 412T157 427V427ZM227 519Q231 513 249 518T286 539Q291 544 294 547T300 554T304 560T307 565T308 569T309 572T308 574T309 576H308Q304 581 288 588Q286 589 282 590T274 593T268 596Q256 600 247 604Q244 604 240 603T233 602T230
601Q227 601 225 600Q206 584 206 558T227 519V519Z" />
<glyph unicode="&#xb1;" glyph-name="plusminus" horiz-adv-x="593" d="M225 237Q236 289 239 321Q208 320 162 320Q133 320 117 340T105 388T135 438T188 460Q236 462 269 461Q280 502 291 541Q299 570 325 588T380 605T422 580T427 529Q416 494 407 458Q450
454 490 450Q518 447 531 424T535 373T499 326T444 312Q412 317 379 318Q375 289 367 245Q362 216 339 195T286 172T238 189T225 237V237ZM391 -19Q292 -8 78 -14Q51 -14 36 4T25 49T53 96T102 116Q301 116 433 108Q459 106 471 85T476 38T442 -5T391 -19V-19Z"
/>
<glyph unicode="&#xb2;" glyph-name="uni00B2" horiz-adv-x="418" d="M139 266Q103 266 81 287T58 339Q58 387 101 426T211 500L235 512Q282 535 304 549T326 582Q326 594 315 602T286 611Q263 611 246 601T208 563Q184 531 155 531Q136 531 123 543T110 575Q110
608 139 641T213 695T306 716Q366 716 402 687T439 610Q439 542 383 492Q350 464 261 424Q197 395 176 367Q198 373 229 377T286 381Q346 381 374 370Q406 357 406 327Q406 300 386 283T335 266Q321 266 293 270Q266 275 243 275Q219 275 187 270Q153 266 139 266V266Z"
/>
<glyph unicode="&#xb3;" glyph-name="uni00B3" horiz-adv-x="366" d="M110 286Q104 289 97 293T84 303L73 312Q68 316 65 320L61 323Q45 335 45 356T62 396T100 419T138 411Q147 405 153 400L159 393L164 389Q166 387 170 386Q199 377 222 384T257 406Q261 413
259 420Q250 439 210 455Q188 451 173 463T159 496Q160 518 175 536T213 559H214Q223 562 231 563Q269 573 286 587Q289 590 290 592Q290 595 285 600T261 611T218 613L217 612Q188 589 184 587Q165 574 144 576T113 596T110 636T138 671Q141 673 142 674T148 679T159
688Q190 713 219 717Q288 728 340 703T399 626Q406 565 348 515Q344 511 339 508Q353 494 359 478Q385 418 339 356Q300 304 235 284T110 286V286Z" />
<glyph unicode="&#xb4;" glyph-name="acute" horiz-adv-x="218" d="M140 570Q112 568 94 587T80 635T109 686L205 772Q230 795 258 796Q286 797 304 778T318 731T289 680L193 594Q168 572 140 570V570Z" />
<glyph unicode="&#xb5;" glyph-name="uni00B5" horiz-adv-x="618" d="M48 -148Q37 -176 10 -193T-44 -205T-84 -177T-85 -124Q-49 -29 45 168Q130 346 170 449Q181 477 208 494T262 506T302 478T303 425Q270 340 211 215L213 213L223 201Q226 199 227 197Q274
189 361 282Q425 351 508 480Q525 507 554 518T607 517Q628 507 635 486T633 441Q631 432 628 424Q588 324 456 35Q443 7 415 -8T360 -16T324 16T327 69L342 102Q247 42 164 62Q153 65 143 70Q85 -51 48 -148V-148Z" />
<glyph unicode="&#xb6;" glyph-name="paragraph" horiz-adv-x="662" d="M309 -132Q302 -161 278 -181T224 -201T180 -180T170 -130Q204 21 246 221Q243 221 241 222Q235 224 226 226L205 231Q168 239 147 255Q103 288 91 340T93 450Q106 503 139 553Q173 603 219
638Q258 668 304 686T386 710T469 716T542 710T608 699Q630 695 642 677Q661 657 655 626Q628 500 578 248T500 -130Q494 -159 469 -179T415 -200T370 -180T360 -130Q386 -5 433 229T503 570Q480 573 462 575Q351 52 309 -132V-132ZM297 461L317 551Q303 544 289
534Q270 519 255 495T232 445Q219 394 248 373Q251 370 265 367Q268 366 277 364L297 461Z" />
<glyph unicode="&#xb7;" glyph-name="middot" horiz-adv-x="162" d="M146 382Q162 362 156 333T125 284T71 263T26 283T16 333T47 382T101 403T146 382V382Z" />
<glyph unicode="&#xb8;" glyph-name="cedilla" horiz-adv-x="242" d="M19 -236Q-28 -236 -58 -215T-89 -163Q-89 -143 -76 -130T-46 -116Q-33 -116 -26 -120T-8 -136Q11 -155 33 -155Q48 -155 59 -145T70 -119Q70 -102 44 -95Q37 -93 25 -93T1 -94Q-16 -93 -26
-83T-36 -56Q-36 -36 5 2Q51 44 73 57Q87 52 102 46T127 30Q101 15 80 -6T54 -46L34 -30Q43 -26 61 -26Q103 -26 132 -50T161 -111Q161 -142 141 -171T88 -218T19 -236V-236Z" />
<glyph unicode="&#xb9;" glyph-name="uni00B9" horiz-adv-x="287" d="M143 317Q151 354 166 433T192 553L168 535Q149 520 127 521T94 538T88 576T113 613L136 631Q149 641 152 643T162 650T170 657T180 664T193 673T214 688L244 709Q264 723 285 721T317 702T321
663Q321 656 319 649Q316 649 282 483L249 317Q244 295 226 280T185 264T151 279T143 317V317Z" />
<glyph unicode="&#xba;" glyph-name="ordmasculine" horiz-adv-x="387" d="M160 405Q120 423 102 462T89 546Q95 593 126 635T209 700Q234 711 263 713Q296 732 322 713Q336 710 344 700L361 691Q393 674 409 645Q428 613 425 576Q422 539 405 507T359 450Q317
412 264 397T160 405V405ZM223 505Q239 498 258 502T293 522Q324 552 309 579Q305 586 289 594Q286 596 271 604H251Q239 604 235 602Q203 588 199 555Q197 538 203 525T223 505V505Z" />
<glyph unicode="&#xbb;" glyph-name="guillemotright" horiz-adv-x="655" d="M66 98Q51 106 44 121Q33 145 44 173T84 218Q145 254 172 271L100 322Q78 337 78 365T98 418T148 449T199 440L200 439Q203 438 205 436Q220 425 250 404Q280 383 292 374Q343 333 343
288Q343 279 341 270Q331 222 269 177Q236 153 143 98Q123 86 102 86T66 98V98ZM401 99Q373 83 346 88T308 118T308 170T347 215Q409 251 435 268L363 319Q341 334 341 362T362 415T412 446T462 437Q477 426 508 405Q537 384 549 375Q600 334 600 289Q599 231 526
178Q493 154 401 99V99Z" />
<glyph unicode="&#xbc;" glyph-name="onequarter" horiz-adv-x="905" d="M143 317Q151 354 166 433T192 553L168 535Q149 520 127 521T94 538T88 576T113 613L136 631Q149 641 152 643T162 650T170 657T180 664T193 673T214 688L244 709Q264 723 285 721T317 702T321
663Q321 656 319 649Q316 649 282 483L249 317Q244 295 226 280T185 264T151 279T143 317V317ZM238 34Q221 12 196 5T152 9T130 44T144 90Q199 165 374 377Q518 552 592 660Q606 682 631 690T677 689T701 655T689 608Q616 503 462 315Q295 111 238 34V34ZM674 -3Q654
-3 642 9T635 44L648 105Q585 105 522 110Q487 113 473 129T463 169Q467 187 476 202T510 239Q625 346 698 417Q719 438 734 448T768 459Q786 459 798 447T809 419Q801 369 775 243L767 204Q777 205 786 205T806 204Q828 204 837 190T843 156Q838 136 823 122T785
107L746 106L742 85Q737 62 732 43Q726 23 710 10T674 -3V-3ZM592 200Q605 201 631 201H669Q683 264 686 284Q630 229 592 200V200Z" />
<glyph unicode="&#xbd;" glyph-name="onehalf" horiz-adv-x="926" d="M143 317Q151 354 166 433T192 553L168 535Q149 520 127 521T94 538T88 576T113 613L136 631Q149 641 152 643T162 650T170 657T180 664T193 673T214 688L244 709Q264 723 285 721T317 702T321
663Q321 656 319 649Q316 649 282 483L249 317Q244 295 226 280T185 264T151 279T143 317V317ZM238 34Q221 12 196 5T152 9T130 44T144 90Q199 165 374 377Q518 552 592 660Q606 682 631 690T677 689T701 655T689 608Q616 503 462 315Q295 111 238 34V34ZM582 -16Q546
-16 524 5T501 57Q501 105 544 144T654 218L678 230Q725 253 747 267T769 300Q769 312 758 320T729 329Q706 329 689 319T651 281Q627 249 598 249Q579 249 566 261T553 293Q553 326 582 359T656 413T749 434Q809 434 845 405T882 328Q882 260 826 210Q793 182
704 142Q640 113 619 85Q641 91 672 95T729 99Q789 99 817 88Q849 75 849 45Q849 18 829 1T778 -16Q764 -16 736 -12Q709 -7 686 -7Q662 -7 630 -12Q596 -16 582 -16V-16Z" />
<glyph unicode="&#xbe;" glyph-name="threequarters" horiz-adv-x="943" d="M278 286Q272 289 265 293T252 303L241 312Q236 316 233 320L229 323Q213 335 213 356T230 396T268 419T306 411Q315 405 321 400L327 393L332 389Q334 387 338 386Q367 377 390 384T425
406Q429 413 427 420Q418 439 378 455Q356 451 341 463T327 496Q328 518 343 536T381 559H382Q391 562 399 563Q437 573 454 587Q457 590 458 592Q458 595 453 600T429 611T386 613L385 612Q356 589 352 587Q333 574 312 576T281 596T278 636T306 671Q309 673 310
674T316 679T327 688Q358 713 387 717Q456 728 508 703T567 626Q574 565 516 515Q512 511 507 508Q521 494 527 478Q553 418 507 356Q468 304 403 284T278 286V286ZM309 34Q292 12 267 5T223 9T201 44T215 90Q270 165 445 377Q589 552 663 660Q677 682 702 690T748
689T772 655T760 608Q687 503 533 315Q366 111 309 34V34ZM729 -18Q709 -18 697 -6T690 29L703 90Q640 90 577 95Q542 98 528 114T518 154Q522 172 531 187T565 224Q680 331 753 402Q774 423 789 433T823 444Q841 444 853 432T864 404Q856 354 830 228L822 189Q832
190 841 190T861 189Q883 189 892 175T898 141Q893 121 878 107T840 92L801 91L797 70Q792 47 787 28Q781 8 765 -5T729 -18V-18ZM647 185Q660 186 686 186H724Q738 249 741 269Q685 214 647 185V185Z" />
<glyph unicode="&#xbf;" glyph-name="questiondown" horiz-adv-x="428" d="M315 -107Q277 -146 233 -168T149 -193T71 -184T8 -145T-29 -79T-33 8Q-12 129 87 191Q99 198 119 209L144 223Q159 232 165 240L167 250V254L169 259Q170 272 173 282Q181 307 203 323T250
337T287 316T291 272L289 263L286 246Q280 213 263 189Q237 152 191 124L160 107Q144 98 136 93Q124 86 117 79T101 56T88 14Q81 -29 104 -53T164 -74T234 -35L236 -29Q238 -27 238 -24L241 -20Q242 -17 243 -15Q248 -3 253 5Q266 29 290 40T336 43T365 13T358
-33L354 -42L347 -58Q333 -87 315 -107V-107ZM334 495Q350 475 344 446T313 397T259 376T214 396T204 446T235 495T289 516T334 495V495Z" />
<glyph unicode="&#xc0;" glyph-name="Agrave" horiz-adv-x="607" d="M-36 41Q-38 51 -38 56Q-38 75 -26 94L321 661Q355 716 403 716Q431 716 448 702T470 661L498 491L531 276L560 96Q564 70 554 48T525 13T487 0Q437 0 428 43L404 195L182 190L95 41Q82 21 62
10T20 -2Q0 -2 -15 9T-36 41V41ZM382 328L362 473L267 326L382 328ZM455 756Q437 756 411 772L292 843Q255 865 255 906Q255 930 273 949T317 968Q332 968 344 964T371 949L490 871Q506 860 513 849T520 818Q520 792 499 774T455 756V756Z" />
<glyph unicode="&#xc1;" glyph-name="Aacute" horiz-adv-x="607" d="M-36 41Q-38 51 -38 56Q-38 75 -26 94L321 661Q355 716 403 716Q431 716 448 702T470 661L498 491L531 276L560 96Q564 70 554 48T525 13T487 0Q437 0 428 43L404 195L182 190L95 41Q82 21 62
10T20 -2Q0 -2 -15 9T-36 41V41ZM382 328L362 473L267 326L382 328ZM399 759Q373 759 358 775T342 815Q342 833 351 847T374 872L491 949Q506 959 517 963T542 968Q567 968 584 951T601 909Q601 891 591 874T564 846L445 775Q419 759 399 759V759Z" />
<glyph unicode="&#xc2;" glyph-name="Acircumflex" horiz-adv-x="598" d="M92 45Q75 18 47 7T-6 7T-36 45T-24 99L321 669Q332 688 350 699T387 713Q391 715 396 716Q425 724 445 710T467 668Q474 578 511 379Q545 183 554 89Q557 62 538 37T490 3T438 7T412 49Q406
107 396 175Q289 178 287 178T173 173L92 45V45ZM262 316Q315 318 372 316L370 328L349 457L262 316V316ZM305 760Q284 760 269 774T254 809Q254 827 263 840T292 868L379 930Q398 943 413 949T443 955Q470 955 494 928L550 867Q562 854 569 842T576 820Q576 795
558 778T517 760Q505 760 497 765T479 780L429 832L356 782Q324 760 305 760V760Z" />
<glyph unicode="&#xc3;" glyph-name="Atilde" horiz-adv-x="607" d="M-36 41Q-38 51 -38 56Q-38 75 -26 94L321 661Q355 716 403 716Q431 716 448 702T470 661L498 491L531 276L560 96Q564 70 554 48T525 13T487 0Q437 0 428 43L404 195L182 190L95 41Q82 21 62
10T20 -2Q0 -2 -15 9T-36 41V41ZM382 328L362 473L267 326L382 328ZM249 767Q233 767 221 778T209 807Q209 833 234 864T295 918T365 940Q394 940 414 932T456 907Q474 895 485 890T512 884Q526 884 535 890T556 910Q570 926 581 933T611 941Q630 941 641 929T651
896Q650 874 625 843T564 790T501 768Q471 768 452 777T409 802Q392 815 380 820T353 826Q338 826 329 820T306 798Q292 783 280 775T249 767V767Z" />
<glyph unicode="&#xc4;" glyph-name="Adieresis" horiz-adv-x="607" d="M-36 41Q-38 51 -38 56Q-38 75 -26 94L321 661Q355 716 403 716Q431 716 448 702T470 661L498 491L531 276L560 96Q564 70 554 48T525 13T487 0Q437 0 428 43L404 195L182 190L95 41Q82 21
62 10T20 -2Q0 -2 -15 9T-36 41V41ZM382 328L362 473L267 326L382 328ZM514 773Q484 773 466 789T447 833Q447 870 473 895T534 920Q564 920 583 904T602 860Q602 823 576 798T514 773V773ZM326 773Q296 773 278 789T259 833Q259 870 285 895T346 920Q376 920 395
904T414 860Q414 823 388 798T326 773V773Z" />
<glyph unicode="&#xc5;" glyph-name="Aring" horiz-adv-x="607" d="M-36 41Q-38 51 -38 56Q-38 75 -26 94L321 661Q355 716 403 716Q431 716 448 702T470 661L498 491L531 276L560 96Q564 70 554 48T525 13T487 0Q437 0 428 43L404 195L182 190L95 41Q82 21 62
10T20 -2Q0 -2 -15 9T-36 41V41ZM382 328L362 473L267 326L382 328ZM420 738Q370 738 339 766T308 837Q308 881 329 916T382 969Q393 975 409 977Q414 978 417 979T426 980Q431 980 437 981T451 982Q495 982 527 952T559 876Q559 839 541 808T490 757T420 738V738V738ZM429
819Q446 819 459 831T473 862Q475 879 465 889T437 900Q419 900 406 888T392 858Q390 838 400 829T429 819V819V819Z" />
<glyph unicode="&#xc6;" glyph-name="AE" horiz-adv-x="951" d="M429 -7Q400 -8 383 12T371 61L373 66V67Q382 117 393 177Q368 178 340 179T309 180H289Q272 180 268 180T233 178T173 175L92 46Q76 19 47 8T-6 8T-36 46T-24 100L313 646L321 658Q330 681 351
697T398 716Q494 722 670 716Q855 710 928 712Q957 713 974 693T986 644T956 594T902 572Q825 570 635 577Q617 578 602 578Q591 514 576 430Q722 432 850 432Q879 432 895 412T906 362T875 313T821 292Q693 292 552 291Q536 195 525 135Q668 139 827 139Q856 139
872 119T882 69T851 20T797 -1H646Q630 -1 617 -1T584 -2T522 -4Q506 -4 429 -7V-7ZM260 317Q323 320 327 320T417 317Q448 495 463 580Q442 579 423 579L260 317V317Z" />
<glyph unicode="&#xc7;" glyph-name="Ccedilla" horiz-adv-x="690" d="M275 -258Q228 -258 198 -237T167 -185Q167 -165 180 -152T210 -138Q223 -138 230 -142T248 -158Q267 -177 289 -177Q304 -177 315 -167T326 -141Q326 -124 300 -117Q293 -115 281 -115T257
-116Q244 -115 236 -105T228 -78Q228 -55 259 -22T325 40Q343 37 354 33T378 19Q357 0 340 -24T318 -68L298 -52Q307 -48 325 -48Q366 -48 391 -72T417 -133Q417 -164 397 -193T344 -240T275 -258V-258ZM335 -1Q269 -1 214 18T121 76Q85 112 66 164T46 282Q46 399
108 498T271 655T484 714Q533 714 578 697T652 648Q682 613 704 574Q713 558 713 543Q713 507 687 484T624 461Q595 461 578 485Q574 491 570 497T561 511Q555 522 547 534Q532 555 508 566T454 577Q385 577 323 539T224 437T186 302Q186 217 230 175T356 133Q399
133 431 145T481 178Q497 195 503 210L522 250Q535 273 554 284T595 295Q620 295 637 281T655 242Q655 222 634 181Q588 91 508 45T335 -1V-1V-1Z" />
<glyph unicode="&#xc8;" glyph-name="Egrave" horiz-adv-x="652" d="M497 -1Q349 -1 94 2Q74 2 60 13T41 42Q33 60 38 81Q46 116 97 363Q134 543 166 646Q170 659 177 670Q189 690 208 702T251 716Q324 717 448 717T645 717Q674 717 690 697T700 649T671 600T618
579Q562 579 451 579T284 579Q268 518 249 435Q297 436 545 436Q574 436 590 416T601 368T570 319T516 298Q267 298 221 297Q199 185 188 139Q391 137 527 137Q556 137 571 117T581 68T551 19T497 -1V-1ZM505 756Q487 756 461 772L342 843Q305 865 305 906Q305
930 323 949T367 968Q382 968 394 964T421 949L540 871Q556 860 563 849T570 818Q570 792 549 774T505 756V756Z" />
<glyph unicode="&#xc9;" glyph-name="Eacute" horiz-adv-x="652" d="M497 -1Q349 -1 94 2Q74 2 60 13T41 42Q33 60 38 81Q46 116 97 363Q134 543 166 646Q170 659 177 670Q189 690 208 702T251 716Q324 717 448 717T645 717Q674 717 690 697T700 649T671 600T618
579Q562 579 451 579T284 579Q268 518 249 435Q297 436 545 436Q574 436 590 416T601 368T570 319T516 298Q267 298 221 297Q199 185 188 139Q391 137 527 137Q556 137 571 117T581 68T551 19T497 -1V-1ZM449 759Q423 759 408 775T392 815Q392 833 401 847T424
872L541 949Q556 959 567 963T592 968Q617 968 634 951T651 909Q651 891 641 874T614 846L495 775Q469 759 449 759V759Z" />
<glyph unicode="&#xca;" glyph-name="Ecircumflex" horiz-adv-x="652" d="M497 -1Q349 -1 94 2Q74 2 60 13T41 42Q33 60 38 81Q46 116 97 363Q134 543 166 646Q170 659 177 670Q189 690 208 702T251 716Q324 717 448 717T645 717Q674 717 690 697T700 649T671
600T618 579Q562 579 451 579T284 579Q268 518 249 435Q297 436 545 436Q574 436 590 416T601 368T570 319T516 298Q267 298 221 297Q199 185 188 139Q391 137 527 137Q556 137 571 117T581 68T551 19T497 -1V-1ZM356 760Q335 760 320 774T305 809Q305 827 314
840T343 868L430 930Q449 943 464 949T494 955Q521 955 545 928L601 867Q613 854 620 842T627 820Q627 795 609 778T568 760Q556 760 548 765T530 780L480 832L407 782Q375 760 356 760V760Z" />
<glyph unicode="&#xcb;" glyph-name="Edieresis" horiz-adv-x="652" d="M497 -1Q349 -1 94 2Q74 2 60 13T41 42Q33 60 38 81Q46 116 97 363Q134 543 166 646Q170 659 177 670Q189 690 208 702T251 716Q324 717 448 717T645 717Q674 717 690 697T700 649T671 600T618
579Q562 579 451 579T284 579Q268 518 249 435Q297 436 545 436Q574 436 590 416T601 368T570 319T516 298Q267 298 221 297Q199 185 188 139Q391 137 527 137Q556 137 571 117T581 68T551 19T497 -1V-1ZM564 773Q534 773 516 789T497 833Q497 870 523 895T584
920Q614 920 633 904T652 860Q652 823 626 798T564 773V773ZM376 773Q346 773 328 789T309 833Q309 870 335 895T396 920Q426 920 445 904T464 860Q464 823 438 798T376 773V773Z" />
<glyph unicode="&#xcc;" glyph-name="Igrave" horiz-adv-x="291" d="M173 65Q167 36 142 16T88 -4T44 17T34 67Q55 161 96 355T158 645Q164 674 189 694T243 714T287 693T297 643Q277 549 236 355T173 65V65ZM296 756Q278 756 252 772L133 843Q96 865 96 906Q96
930 114 949T158 968Q173 968 185 964T212 949L331 871Q347 860 354 849T361 818Q361 792 340 774T296 756V756Z" />
<glyph unicode="&#xcd;" glyph-name="Iacute" horiz-adv-x="291" d="M173 65Q167 36 142 16T88 -4T44 17T34 67Q55 161 96 355T158 645Q164 674 189 694T243 714T287 693T297 643Q277 549 236 355T173 65V65ZM240 759Q214 759 199 775T183 815Q183 833 192 847T215
872L332 949Q347 959 358 963T383 968Q408 968 425 951T442 909Q442 891 432 874T405 846L286 775Q260 759 240 759V759Z" />
<glyph unicode="&#xce;" glyph-name="Icircumflex" horiz-adv-x="291" d="M173 65Q167 36 142 16T88 -4T44 17T34 67Q55 161 96 355T158 645Q164 674 189 694T243 714T287 693T297 643Q277 549 236 355T173 65V65ZM147 760Q126 760 111 774T96 809Q96 827 105
840T134 868L221 930Q240 943 255 949T285 955Q312 955 336 928L392 867Q404 854 411 842T418 820Q418 795 400 778T359 760Q347 760 339 765T321 780L271 832L198 782Q166 760 147 760V760Z" />
<glyph unicode="&#xcf;" glyph-name="Idieresis" horiz-adv-x="291" d="M173 65Q167 36 142 16T88 -4T44 17T34 67Q55 161 96 355T158 645Q164 674 189 694T243 714T287 693T297 643Q277 549 236 355T173 65V65ZM355 773Q325 773 307 789T288 833Q288 870 314
895T375 920Q405 920 424 904T443 860Q443 823 417 798T355 773V773ZM167 773Q137 773 119 789T100 833Q100 870 126 895T187 920Q217 920 236 904T255 860Q255 823 229 798T167 773V773Z" />
<glyph unicode="&#xd0;" glyph-name="Eth" horiz-adv-x="704" d="M68 298Q43 298 29 315T20 358Q26 384 47 401T94 418H394Q420 418 433 402T440 358Q434 331 414 315T368 298H68V298ZM101 1Q74 2 58 22T48 71L108 359Q138 510 171 638Q178 665 203 685T258 704Q274
708 317 711T411 715Q545 715 625 649T706 455Q706 358 658 266T536 105Q475 49 399 25T245 0Q128 0 101 1V1V1ZM201 132Q260 132 279 133Q355 137 403 160T489 231Q528 281 547 334T566 434Q566 511 521 547T371 584Q337 584 295 581L263 435L227 258Q212 183
201 132V132V132Z" />
<glyph unicode="&#xd1;" glyph-name="Ntilde" horiz-adv-x="751" d="M100 -4Q69 -4 53 15T42 65Q58 137 94 334Q130 530 158 646Q165 675 189 694T242 714Q257 714 270 708Q288 702 298 686L339 617L361 579Q375 552 395 520Q440 443 473 377L533 253Q558 359
595 543L617 646Q624 679 647 697T699 716Q724 716 741 702T758 662Q758 653 757 648L748 599Q721 461 696 345T631 69Q623 38 598 19T543 -1Q518 -1 504 8T479 37L455 80Q407 160 369 242Q311 367 256 455Q244 386 220 259T182 65Q175 32 152 14T100 -4V-4ZM325
767Q309 767 297 778T285 807Q285 833 310 864T371 918T441 940Q470 940 490 932T532 907Q550 895 561 890T588 884Q602 884 611 890T632 910Q646 926 657 933T687 941Q706 941 717 929T727 896Q726 874 701 843T640 790T577 768Q547 768 528 777T485 802Q468 815
456 820T429 826Q414 826 405 820T382 798Q368 783 356 775T325 767V767Z" />
<glyph unicode="&#xd2;" glyph-name="Ograve" horiz-adv-x="769" d="M364 1Q274 1 203 37T90 141T49 297Q49 412 105 510T258 667T468 725Q494 725 506 723T543 713L568 705Q587 699 607 692T641 676Q698 637 730 571T762 421Q762 313 708 216T562 60T364 1V1ZM387
136Q454 136 507 172T591 268T622 394Q622 441 601 492T547 564Q535 572 503 579Q496 581 488 583T471 588Q445 590 427 590Q364 590 309 553T222 453T190 322Q190 231 241 184T387 136V136ZM529 756Q511 756 485 772L366 843Q329 865 329 906Q329 930 347 949T391
968Q406 968 418 964T445 949L564 871Q580 860 587 849T594 818Q594 792 573 774T529 756V756Z" />
<glyph unicode="&#xd3;" glyph-name="Oacute" horiz-adv-x="769" d="M364 1Q274 1 203 37T90 141T49 297Q49 412 105 510T258 667T468 725Q494 725 506 723T543 713L568 705Q587 699 607 692T641 676Q698 637 730 571T762 421Q762 313 708 216T562 60T364 1V1ZM387
136Q454 136 507 172T591 268T622 394Q622 441 601 492T547 564Q535 572 503 579Q496 581 488 583T471 588Q445 590 427 590Q364 590 309 553T222 453T190 322Q190 231 241 184T387 136V136ZM473 759Q447 759 432 775T416 815Q416 833 425 847T448 872L565 949Q580
959 591 963T616 968Q641 968 658 951T675 909Q675 891 665 874T638 846L519 775Q493 759 473 759V759Z" />
<glyph unicode="&#xd4;" glyph-name="Ocircumflex" horiz-adv-x="755" d="M370 -11Q285 -16 216 17T106 106T53 237T61 394Q72 435 83 466T115 538T166 613T239 677Q272 699 320 716Q407 736 457 709L472 708Q485 707 496 706Q489 710 508 707T546 698Q587 684
618 661T682 590Q728 521 740 455Q750 398 739 335T698 213T622 104T511 24T370 -11V-11ZM394 129Q440 131 482 155T552 218T594 306T600 407Q593 448 560 496Q536 531 519 544T485 561Q470 565 430 569Q367 575 334 579Q330 579 327 580Q312 574 304 569Q262 543
240 500T199 386Q181 317 200 257T271 161T394 129V129ZM360 760Q339 760 324 774T309 809Q309 827 318 840T347 868L434 930Q453 943 468 949T498 955Q525 955 549 928L605 867Q617 854 624 842T631 820Q631 795 613 778T572 760Q560 760 552 765T534 780L484
832L411 782Q379 760 360 760V760Z" />
<glyph unicode="&#xd5;" glyph-name="Otilde" horiz-adv-x="769" d="M364 1Q274 1 203 37T90 141T49 297Q49 412 105 510T258 667T468 725Q494 725 506 723T543 713L568 705Q587 699 607 692T641 676Q698 637 730 571T762 421Q762 313 708 216T562 60T364 1V1ZM387
136Q454 136 507 172T591 268T622 394Q622 441 601 492T547 564Q535 572 503 579Q496 581 488 583T471 588Q445 590 427 590Q364 590 309 553T222 453T190 322Q190 231 241 184T387 136V136ZM323 767Q307 767 295 778T283 807Q283 833 308 864T369 918T439 940Q468
940 488 932T530 907Q548 895 559 890T586 884Q600 884 609 890T630 910Q644 926 655 933T685 941Q704 941 715 929T725 896Q724 874 699 843T638 790T575 768Q545 768 526 777T483 802Q466 815 454 820T427 826Q412 826 403 820T380 798Q366 783 354 775T323 767V767Z"
/>
<glyph unicode="&#xd6;" glyph-name="Odieresis" horiz-adv-x="769" d="M364 1Q274 1 203 37T90 141T49 297Q49 412 105 510T258 667T468 725Q494 725 506 723T543 713L568 705Q587 699 607 692T641 676Q698 637 730 571T762 421Q762 313 708 216T562 60T364 1V1ZM387
136Q454 136 507 172T591 268T622 394Q622 441 601 492T547 564Q535 572 503 579Q496 581 488 583T471 588Q445 590 427 590Q364 590 309 553T222 453T190 322Q190 231 241 184T387 136V136ZM588 773Q558 773 540 789T521 833Q521 870 547 895T608 920Q638 920
657 904T676 860Q676 823 650 798T588 773V773ZM400 773Q370 773 352 789T333 833Q333 870 359 895T420 920Q450 920 469 904T488 860Q488 823 462 798T400 773V773Z" />
<glyph unicode="&#xd7;" glyph-name="multiply" horiz-adv-x="653" d="M304 167Q234 105 163 37Q141 15 111 12T63 27T48 74T74 125Q147 196 226 265L124 387Q107 407 112 436T141 486T195 508T241 489L344 365L502 492Q527 512 556 511T600 489T609 439T576 390L422
267L530 121Q546 100 538 71T505 23T452 4T408 27L304 167Z" />
<glyph unicode="&#xd8;" glyph-name="Oslash" horiz-adv-x="769" d="M8 -30Q-13 -30 -27 -14T-37 25Q-34 43 -16 58L58 122L365 400L745 733Q765 750 787 750Q810 750 822 733T830 694Q824 671 809 658L430 331L117 46L52 -12Q33 -30 8 -30V-30ZM364 1Q274 1 203
37T90 141T49 297Q49 412 105 510T258 667T468 725Q494 725 506 723T543 713L568 705Q587 699 607 692T641 676Q698 637 730 571T762 421Q762 313 708 216T562 60T364 1V1V1ZM387 136Q454 136 507 172T591 268T622 394Q622 441 601 492T547 564Q535 572 503 579Q496
581 488 583T471 588Q445 590 427 590Q364 590 309 553T222 453T190 322Q190 231 241 184T387 136V136V136Z" />
<glyph unicode="&#xd9;" glyph-name="Ugrave" horiz-adv-x="714" d="M299 -1Q232 -1 177 24T89 98T56 218Q56 284 70 350T117 527Q149 642 151 648Q159 677 183 697T236 717Q260 717 275 702T290 662Q290 645 284 619T268 563L258 531Q230 435 213 357T196 241Q196
192 231 163T329 134Q401 134 459 199T550 402Q563 455 576 548L592 645Q599 679 623 697T677 716Q706 716 722 698T732 649Q724 611 715 547Q701 450 688 398Q595 -1 299 -1V-1ZM501 756Q483 756 457 772L338 843Q301 865 301 906Q301 930 319 949T363 968Q378
968 390 964T417 949L536 871Q552 860 559 849T566 818Q566 792 545 774T501 756V756Z" />
<glyph unicode="&#xda;" glyph-name="Uacute" horiz-adv-x="714" d="M299 -1Q232 -1 177 24T89 98T56 218Q56 284 70 350T117 527Q149 642 151 648Q159 677 183 697T236 717Q260 717 275 702T290 662Q290 645 284 619T268 563L258 531Q230 435 213 357T196 241Q196
192 231 163T329 134Q401 134 459 199T550 402Q563 455 576 548L592 645Q599 679 623 697T677 716Q706 716 722 698T732 649Q724 611 715 547Q701 450 688 398Q595 -1 299 -1V-1ZM445 759Q419 759 404 775T388 815Q388 833 397 847T420 872L537 949Q552 959 563
963T588 968Q613 968 630 951T647 909Q647 891 637 874T610 846L491 775Q465 759 445 759V759Z" />
<glyph unicode="&#xdb;" glyph-name="Ucircumflex" horiz-adv-x="714" d="M299 -1Q232 -1 177 24T89 98T56 218Q56 284 70 350T117 527Q149 642 151 648Q159 677 183 697T236 717Q260 717 275 702T290 662Q290 645 284 619T268 563L258 531Q230 435 213 357T196
241Q196 192 231 163T329 134Q401 134 459 199T550 402Q563 455 576 548L592 645Q599 679 623 697T677 716Q706 716 722 698T732 649Q724 611 715 547Q701 450 688 398Q595 -1 299 -1V-1ZM352 760Q331 760 316 774T301 809Q301 827 310 840T339 868L426 930Q445
943 460 949T490 955Q517 955 541 928L597 867Q609 854 616 842T623 820Q623 795 605 778T564 760Q552 760 544 765T526 780L476 832L403 782Q371 760 352 760V760Z" />
<glyph unicode="&#xdc;" glyph-name="Udieresis" horiz-adv-x="714" d="M299 -1Q232 -1 177 24T89 98T56 218Q56 284 70 350T117 527Q149 642 151 648Q159 677 183 697T236 717Q260 717 275 702T290 662Q290 645 284 619T268 563L258 531Q230 435 213 357T196
241Q196 192 231 163T329 134Q401 134 459 199T550 402Q563 455 576 548L592 645Q599 679 623 697T677 716Q706 716 722 698T732 649Q724 611 715 547Q701 450 688 398Q595 -1 299 -1V-1ZM560 773Q530 773 512 789T493 833Q493 870 519 895T580 920Q610 920 629
904T648 860Q648 823 622 798T560 773V773ZM372 773Q342 773 324 789T305 833Q305 870 331 895T392 920Q422 920 441 904T460 860Q460 823 434 798T372 773V773Z" />
<glyph unicode="&#xdd;" glyph-name="Yacute" horiz-adv-x="593" d="M237 -1Q206 -1 190 17T180 66L186 95Q200 174 212 222L225 276L164 436Q110 578 94 625Q87 651 97 672T128 705T171 718Q187 718 202 706T223 676L230 655Q244 615 267 550T317 418L391 512L540
684Q569 717 603 717Q628 717 645 701T663 661Q663 635 642 610Q634 599 609 571T542 494L489 434Q410 344 364 285Q340 167 344 184L320 70Q314 36 290 18T237 -1V-1ZM373 759Q347 759 332 775T316 815Q316 833 325 847T348 872L465 949Q480 959 491 963T516 968Q541
968 558 951T575 909Q575 891 565 874T538 846L419 775Q393 759 373 759V759Z" />
<glyph unicode="&#xde;" glyph-name="Thorn" horiz-adv-x="653" d="M38 65Q104 410 157 641Q166 680 191 700T244 720T289 699T296 639L295 634Q479 639 554 607Q604 585 634 545T667 452Q670 396 640 341Q612 287 555 242Q479 183 357 173Q325 170 271 170Q220
170 202 168H198Q190 126 179 69Q173 40 149 19T96 -2T50 16T38 65V65ZM225 308Q246 309 299 309Q348 310 376 312Q449 318 480 342Q526 379 524 416Q521 456 474 477Q441 492 380 494T264 494Q245 406 225 308V308Z" />
<glyph unicode="&#xdf;" glyph-name="germandbls" horiz-adv-x="597" d="M238 -26Q209 -28 192 -10T178 37T205 87T257 110Q278 111 298 111T319 113Q364 124 386 162T394 248Q390 264 372 282Q370 282 354 288Q292 310 299 369Q304 413 345 441Q362 452 385 460L397
464Q421 490 412 522Q407 544 387 557T337 569Q310 569 287 557T251 523Q242 488 232 445Q230 436 228 422T225 403Q223 391 217 380Q163 138 142 59Q134 31 109 12T57 -5T15 18T8 67Q23 123 37 184T69 326T96 444Q98 459 101 471Q114 537 131 568Q170 635 234
670T365 705Q431 706 482 674T548 578Q574 473 486 381Q516 349 528 314Q543 268 537 216T505 118T433 34T326 -19Q315 -22 299 -23T272 -25T249 -26H238V-26Z" />
<glyph unicode="&#xe0;" glyph-name="agrave" horiz-adv-x="574" d="M399 1Q376 0 360 12T340 46Q221 -26 120 13Q68 33 41 72Q15 112 16 159T33 254T76 345T140 424T225 490T323 527T428 522Q450 516 469 501H474Q504 505 522 487T538 440Q535 406 531 371T519
291T506 221L493 143Q484 90 481 74Q476 45 452 24T399 1V1ZM194 145Q235 129 288 163Q297 168 304 174L324 192L352 216Q360 222 369 226Q383 306 390 364L381 371L370 382L362 388Q324 400 277 373T192 286Q157 228 159 193T194 145V145ZM411 570Q383 572 358
594L272 675Q245 700 242 727T256 774T300 795T353 771L442 686Q466 663 472 636T459 589T411 570V570Z" />
<glyph unicode="&#xe1;" glyph-name="aacute" horiz-adv-x="574" d="M181 -1Q102 -1 61 42T19 154Q19 243 70 333T201 481T359 540Q419 540 459 510Q481 519 497 519Q531 519 548 499T559 445L478 65Q471 33 453 17T408 0Q379 0 361 21T347 74L348 82Q261 -1 181
-1V-1ZM224 135Q249 135 273 149T325 187Q365 223 377 226L410 377Q402 388 385 396T346 404Q307 404 264 369T192 285T162 196Q162 167 180 151T224 135V135ZM385 570Q357 568 339 587T325 635T354 686L450 772Q475 795 503 796Q531 797 549 778T563 731T534 680L438
594Q413 572 385 570V570Z" />
<glyph unicode="&#xe2;" glyph-name="acircumflex" horiz-adv-x="574" d="M181 -1Q102 -1 61 42T19 154Q19 243 70 333T201 481T359 540Q419 540 459 510Q481 519 497 519Q531 519 548 499T559 445L478 65Q471 33 453 17T408 0Q379 0 361 21T347 74L348 82Q261
-1 181 -1V-1ZM224 135Q249 135 273 149T325 187Q365 223 377 226L410 377Q402 388 385 396T346 404Q307 404 264 369T192 285T162 196Q162 167 180 151T224 135V135ZM288 581Q267 581 252 595T237 630Q237 648 246 661T275 689L362 751Q381 764 396 770T426 776Q453
776 477 749L533 688Q545 675 552 663T559 641Q559 616 541 599T500 581Q488 581 480 586T462 601L412 653L339 603Q307 581 288 581V581Z" />
<glyph unicode="&#xe3;" glyph-name="atilde" horiz-adv-x="574" d="M181 -1Q102 -1 61 42T19 154Q19 243 70 333T201 481T359 540Q419 540 459 510Q481 519 497 519Q531 519 548 499T559 445L478 65Q471 33 453 17T408 0Q379 0 361 21T347 74L348 82Q261 -1 181
-1V-1ZM224 135Q249 135 273 149T325 187Q365 223 377 226L410 377Q402 388 385 396T346 404Q307 404 264 369T192 285T162 196Q162 167 180 151T224 135V135ZM227 587Q211 587 199 598T187 627Q187 653 212 684T273 738T343 760Q372 760 392 752T434 727Q452 715
463 710T490 704Q504 704 513 710T534 730Q548 746 559 753T589 761Q608 761 619 749T629 716Q628 694 603 663T542 610T479 588Q449 588 430 597T387 622Q370 635 358 640T331 646Q316 646 307 640T284 618Q270 603 258 595T227 587V587Z" />
<glyph unicode="&#xe4;" glyph-name="adieresis" horiz-adv-x="574" d="M181 -1Q102 -1 61 42T19 154Q19 243 70 333T201 481T359 540Q419 540 459 510Q481 519 497 519Q531 519 548 499T559 445L478 65Q471 33 453 17T408 0Q379 0 361 21T347 74L348 82Q261 -1
181 -1V-1ZM224 135Q249 135 273 149T325 187Q365 223 377 226L410 377Q402 388 385 396T346 404Q307 404 264 369T192 285T162 196Q162 167 180 151T224 135V135ZM489 591Q459 591 441 607T422 651Q422 688 448 713T509 738Q539 738 558 722T577 678Q577 641 551
616T489 591V591ZM301 591Q271 591 253 607T234 651Q234 688 260 713T321 738Q351 738 370 722T389 678Q389 641 363 616T301 591V591Z" />
<glyph unicode="&#xe5;" glyph-name="aring" horiz-adv-x="574" d="M181 -1Q102 -1 61 42T19 154Q19 243 70 333T201 481T359 540Q419 540 459 510Q481 519 497 519Q531 519 548 499T559 445L478 65Q471 33 453 17T408 0Q379 0 361 21T347 74L348 82Q261 -1 181
-1V-1ZM224 135Q249 135 273 149T325 187Q365 223 377 226L410 377Q402 388 385 396T346 404Q307 404 264 369T192 285T162 196Q162 167 180 151T224 135V135ZM397 570Q347 570 316 597T285 667Q285 710 306 744T359 796Q370 802 386 804Q391 805 394 806T403 807Q408
807 414 808T428 809Q472 809 504 779T536 705Q536 669 518 638T467 589T397 570V570ZM406 649Q423 649 436 661T450 691Q452 708 442 718T414 728Q396 728 383 717T369 687Q367 668 377 659T406 649V649Z" />
<glyph unicode="&#xe6;" glyph-name="ae" horiz-adv-x="915" d="M190 -1Q145 -3 103 12T39 56Q12 92 17 137T65 231Q137 314 289 334Q334 340 390 342Q396 353 402 365L400 371L394 384L389 392Q371 409 325 412T247 406Q238 404 221 389L197 371Q178 355 165
347Q140 331 113 332T71 354T64 399T97 441Q104 446 116 456L142 477Q185 510 225 522T313 536T413 528T495 491L505 480Q603 552 717 529Q718 528 725 527T736 525T748 523T762 519L775 514Q782 511 788 508T802 500T814 491Q867 447 881 403Q884 392 887 380T891
358L893 334L896 313Q898 297 891 282Q884 261 866 247T825 229Q753 217 659 216T502 218Q504 201 512 187Q539 143 612 140Q625 139 633 140T654 145T676 153T705 168L741 184Q768 197 793 190T827 160T823 113T784 76Q778 74 756 63T718 46T678 31T630 19T580
16Q468 22 410 84Q370 62 341 49Q245 2 190 -1V-1ZM210 122Q230 123 294 155Q322 169 362 191Q361 205 361 218Q318 216 285 212Q197 200 167 166Q151 148 158 140Q173 120 210 122V122ZM531 342Q548 341 586 341T645 340T696 339T750 342Q750 344 749 347Q742
367 710 395Q704 401 662 408Q627 415 592 398T531 342V342Z" />
<glyph unicode="&#xe7;" glyph-name="ccedilla" horiz-adv-x="545" d="M204 -242Q157 -242 127 -221T96 -169Q96 -149 109 -136T139 -122Q152 -122 159 -126T177 -142Q196 -161 218 -161Q233 -161 244 -151T255 -125Q255 -108 229 -101Q222 -99 210 -99T186 -100Q169
-99 159 -89T149 -62Q149 -42 190 -4Q236 38 258 51Q272 46 287 40T312 24Q286 9 265 -12T239 -52L219 -36Q228 -32 246 -32Q288 -32 317 -56T346 -117Q346 -148 326 -177T273 -224T204 -242V-242ZM321 13Q272 -3 229 1T148 21Q89 47 56 101T32 227Q40 286 76 347T166
453Q204 485 246 504T339 529T434 512Q459 501 484 476Q485 474 494 464L509 449Q528 431 526 404T501 354T449 328T400 342Q398 343 369 374Q359 384 354 387Q304 409 248 360Q219 335 198 301T174 237Q170 209 184 184T230 146Q262 133 287 136T330 155Q337 160
347 176Q378 222 379 224Q397 249 426 257T479 254T505 214T490 162Q486 156 482 150T472 135T463 122Q439 84 413 62Q371 27 321 13V13V13Z" />
<glyph unicode="&#xe8;" glyph-name="egrave" horiz-adv-x="563" d="M330 5Q258 -4 207 3T120 36T61 103T37 227Q39 274 57 314Q146 526 355 530Q546 529 550 323Q552 280 528 253Q499 219 443 215Q417 212 365 211T171 219Q161 127 264 112Q325 108 354 131Q401
170 427 171T468 161T486 132T480 98Q473 83 449 60Q425 41 402 28T330 5V5ZM190 314Q225 313 263 312T356 311T427 319Q430 335 423 359T378 405Q333 428 270 401Q209 375 190 314V314ZM382 570Q354 572 329 594L243 675Q216 700 213 727T227 774T271 795T324
771L413 686Q437 663 443 636T430 589T382 570V570Z" />
<glyph unicode="&#xe9;" glyph-name="eacute" horiz-adv-x="568" d="M326 -1Q253 -10 201 -3T114 31T57 101T33 229Q14 239 20 272Q32 316 54 320Q145 540 355 544Q545 543 548 329Q550 285 526 256Q496 220 440 217Q413 214 362 213T167 220Q156 125 261 111Q322
107 351 130Q397 170 423 171T464 161T483 131T477 96Q470 80 444 56Q421 36 397 23T326 -1V-1ZM187 320Q223 319 261 319T355 318T426 325Q429 341 422 366T376 415Q333 438 268 411Q207 383 187 320V320ZM349 570Q321 568 303 587T289 635T318 686L414 772Q439
795 467 796Q495 797 513 778T527 731T498 680L402 594Q377 572 349 570V570Z" />
<glyph unicode="&#xea;" glyph-name="ecircumflex" horiz-adv-x="563" d="M330 5Q258 -4 207 3T120 36T61 103T37 227Q39 274 57 314Q146 526 355 530Q546 529 550 323Q552 280 528 253Q499 219 443 215Q417 212 365 211T171 219Q161 127 264 112Q325 108 354
131Q401 170 427 171T468 161T486 132T480 98Q473 83 449 60Q425 41 402 28T330 5V5ZM190 314Q225 313 263 312T356 311T427 319Q430 335 423 359T378 405Q333 428 270 401Q209 375 190 314V314ZM252 581Q231 581 216 595T201 630Q201 648 210 661T239 689L326
751Q345 764 360 770T390 776Q417 776 441 749L497 688Q509 675 516 663T523 641Q523 616 505 599T464 581Q452 581 444 586T426 601L376 653L303 603Q271 581 252 581V581Z" />
<glyph unicode="&#xeb;" glyph-name="edieresis" horiz-adv-x="571" d="M332 -1Q259 -10 207 -3T120 31T63 101T39 229Q20 239 26 272Q38 316 60 320Q151 540 361 544Q551 543 554 329Q556 285 532 256Q502 220 446 217Q419 214 368 213T173 220Q162 125 267 111Q328
107 357 130Q403 170 429 171T470 161T489 131T483 96Q476 80 450 56Q427 36 403 23T332 -1V-1ZM193 320Q229 319 267 319T361 318T432 325Q435 341 428 366T382 415Q339 438 274 411Q213 383 193 320V320ZM458 591Q428 591 410 607T391 651Q391 688 417 713T478
738Q508 738 527 722T546 678Q546 641 520 616T458 591V591ZM270 591Q240 591 222 607T203 651Q203 688 229 713T290 738Q320 738 339 722T358 678Q358 641 332 616T270 591V591Z" />
<glyph unicode="&#xec;" glyph-name="igrave" horiz-adv-x="254" d="M224 570Q197 572 174 594L92 675Q67 700 64 727T77 774T118 795T169 771L253 686Q275 663 281 636T269 589T224 570V570ZM79 -1Q51 -1 35 15T19 63Q19 79 28 126T47 220L53 251Q78 377 97 460Q105
493 129 511T181 530Q205 530 221 516T238 476Q238 464 225 401L210 332Q189 227 182 187Q176 160 169 112L162 73Q156 40 134 20T79 -1V-1V-1Z" />
<glyph unicode="&#xed;" glyph-name="iacute" horiz-adv-x="254" d="M79 -1Q51 -1 35 15T19 63Q19 79 28 126T47 220L53 251Q78 377 97 460Q105 493 129 511T181 530Q205 530 221 516T238 476Q238 464 225 401L210 332Q189 227 182 187Q176 160 169 112L162 73Q156
40 134 20T79 -1V-1ZM193 570Q165 568 147 587T133 635T162 686L258 772Q283 795 311 796Q339 797 357 778T371 731T342 680L246 594Q221 572 193 570V570Z" />
<glyph unicode="&#xee;" glyph-name="icircumflex" horiz-adv-x="254" d="M101 581Q81 581 67 595T53 630Q53 648 61 661T88 689L170 751Q188 764 202 770T231 776Q256 776 279 749L332 688Q343 675 349 663T356 641Q356 616 339 599T301 581Q289 581 282 586T265
601L218 653L149 603Q119 581 101 581V581ZM79 -1Q51 -1 35 15T19 63Q19 79 28 126T47 220L53 251Q78 377 97 460Q105 493 129 511T181 530Q205 530 221 516T238 476Q238 464 225 401L210 332Q189 227 182 187Q176 160 169 112L162 73Q156 40 134 20T79 -1V-1Z"
/>
<glyph unicode="&#xef;" glyph-name="idieresis" horiz-adv-x="254" d="M287 595Q258 595 241 610T223 652Q223 686 247 710T306 734Q334 734 352 719T370 677Q370 642 345 619T287 595V595ZM109 595Q81 595 64 610T46 652Q46 686 70 710T128 734Q156 734 174
719T192 677Q192 642 167 619T109 595V595ZM79 -1Q51 -1 35 15T19 63Q19 79 28 126T47 220L53 251Q78 377 97 460Q105 493 129 511T181 530Q205 530 221 516T238 476Q238 464 225 401L210 332Q189 227 182 187Q176 160 169 112L162 73Q156 40 134 20T79 -1V-1Z"
/>
<glyph unicode="&#xf0;" glyph-name="eth" horiz-adv-x="625" d="M226 -10Q161 -10 113 17T40 93T15 203Q15 282 56 356T163 478T301 525Q325 525 348 518T388 499Q367 554 340 591T273 675Q245 706 233 723T221 758Q221 787 243 809T293 832Q320 832 337 820T378
778Q436 708 492 608Q558 486 558 362Q558 278 515 191T396 47T226 -10V-10ZM255 122Q293 122 330 153T392 236T416 342Q416 350 414 368Q409 368 406 368T399 367Q393 367 387 370L352 388Q327 400 283 400Q252 400 222 373T173 306T154 228Q154 175 180 149T255
122V122ZM198 550Q174 550 161 562T148 595Q148 614 159 632T192 664Q293 726 347 757T458 813Q476 820 492 820Q517 820 529 808T541 775Q541 730 489 701L376 640L242 565Q217 550 198 550V550Z" />
<glyph unicode="&#xf1;" glyph-name="ntilde" horiz-adv-x="559" d="M381 -2Q348 -2 334 19T326 67L341 127Q357 189 361 207Q382 295 382 335Q382 365 364 382T313 399Q284 399 259 387T215 354L199 269Q162 80 160 70Q151 37 129 19T79 1Q45 1 31 24T23 81Q78
335 94 455Q99 492 118 511T168 530Q193 530 210 512T224 467Q288 529 367 529Q435 529 476 485T518 372Q518 301 496 208Q494 200 473 112L463 73Q454 36 432 17T381 -2V-2ZM183 587Q167 587 155 598T143 627Q143 653 168 684T229 738T299 760Q328 760 348 752T390
727Q408 715 419 710T446 704Q460 704 469 710T490 730Q504 746 515 753T545 761Q564 761 575 749T585 716Q584 694 559 663T498 610T435 588Q405 588 386 597T343 622Q326 635 314 640T287 646Q272 646 263 640T240 618Q226 603 214 595T183 587V587Z" />
<glyph unicode="&#xf2;" glyph-name="ograve" horiz-adv-x="582" d="M254 0Q193 0 143 27T65 106T37 227Q38 304 75 374T177 486T323 529Q351 529 366 525T401 511Q416 502 430 497Q483 477 515 424T548 310Q548 231 509 160T403 44T254 0V0ZM276 130Q310 130
340 152T389 212T408 293Q408 335 380 360Q369 370 345 378Q332 383 324 388T311 403Q305 403 302 403T296 402Q265 396 238 374T193 317T176 240Q176 187 203 159T276 130V130ZM379 570Q351 572 326 594L240 675Q213 700 210 727T224 774T268 795T321 771L410
686Q434 663 440 636T427 589T379 570V570Z" />
<glyph unicode="&#xf3;" glyph-name="oacute" horiz-adv-x="582" d="M254 0Q193 0 143 27T65 106T37 227Q38 304 75 374T177 486T323 529Q351 529 366 525T401 511Q416 502 430 497Q483 477 515 424T548 310Q548 231 509 160T403 44T254 0V0ZM276 130Q310 130
340 152T389 212T408 293Q408 335 380 360Q369 370 345 378Q332 383 324 388T311 403Q305 403 302 403T296 402Q265 396 238 374T193 317T176 240Q176 187 203 159T276 130V130ZM346 570Q318 568 300 587T286 635T315 686L411 772Q436 795 464 796Q492 797 510
778T524 731T495 680L399 594Q374 572 346 570V570Z" />
<glyph unicode="&#xf4;" glyph-name="ocircumflex" horiz-adv-x="582" d="M254 0Q193 0 143 27T65 106T37 227Q38 304 75 374T177 486T323 529Q351 529 366 525T401 511Q416 502 430 497Q483 477 515 424T548 310Q548 231 509 160T403 44T254 0V0ZM276 130Q310
130 340 152T389 212T408 293Q408 335 380 360Q369 370 345 378Q332 383 324 388T311 403Q305 403 302 403T296 402Q265 396 238 374T193 317T176 240Q176 187 203 159T276 130V130ZM249 581Q228 581 213 595T198 630Q198 648 207 661T236 689L323 751Q342 764
357 770T387 776Q414 776 438 749L494 688Q506 675 513 663T520 641Q520 616 502 599T461 581Q449 581 441 586T423 601L373 653L300 603Q268 581 249 581V581Z" />
<glyph unicode="&#xf5;" glyph-name="otilde" horiz-adv-x="582" d="M254 0Q193 0 143 27T65 106T37 227Q38 304 75 374T177 486T323 529Q351 529 366 525T401 511Q416 502 430 497Q483 477 515 424T548 310Q548 231 509 160T403 44T254 0V0ZM276 130Q310 130
340 152T389 212T408 293Q408 335 380 360Q369 370 345 378Q332 383 324 388T311 403Q305 403 302 403T296 402Q265 396 238 374T193 317T176 240Q176 187 203 159T276 130V130ZM188 587Q172 587 160 598T148 627Q148 653 173 684T234 738T304 760Q333 760 353
752T395 727Q413 715 424 710T451 704Q465 704 474 710T495 730Q509 746 520 753T550 761Q569 761 580 749T590 716Q589 694 564 663T503 610T440 588Q410 588 391 597T348 622Q331 635 319 640T292 646Q277 646 268 640T245 618Q231 603 219 595T188 587V587Z"
/>
<glyph unicode="&#xf6;" glyph-name="odieresis" horiz-adv-x="582" d="M254 0Q193 0 143 27T65 106T37 227Q38 304 75 374T177 486T323 529Q351 529 366 525T401 511Q416 502 430 497Q483 477 515 424T548 310Q548 231 509 160T403 44T254 0V0ZM276 130Q310 130
340 152T389 212T408 293Q408 335 380 360Q369 370 345 378Q332 383 324 388T311 403Q305 403 302 403T296 402Q265 396 238 374T193 317T176 240Q176 187 203 159T276 130V130ZM450 591Q420 591 402 607T383 651Q383 688 409 713T470 738Q500 738 519 722T538
678Q538 641 512 616T450 591V591ZM262 591Q232 591 214 607T195 651Q195 688 221 713T282 738Q312 738 331 722T350 678Q350 641 324 616T262 591V591Z" />
<glyph unicode="&#xf7;" glyph-name="divide" horiz-adv-x="676" d="M123 186Q94 185 77 204T63 252T91 302T145 326Q254 332 556 332Q585 332 601 312T611 262T580 213T526 192Q228 192 123 186V186ZM351 125Q368 105 362 76T331 27T277 6T232 26T221 76T253
125T307 146T351 125V125ZM426 484Q443 464 437 435T406 386T352 365T307 385T297 435T328 484T382 505T426 484V484Z" />
<glyph unicode="&#xf8;" glyph-name="oslash" horiz-adv-x="567" d="M36 -29Q20 -29 10 -18T0 9Q0 30 16 45L108 132L283 305L519 533Q537 551 555 551Q571 551 582 540T593 514Q593 499 578 484L330 239L164 82L72 -11Q54 -29 36 -29V-29ZM254 0Q194 -1 144 26T65
106T37 227Q38 304 75 374T177 486T323 529Q380 529 432 499T516 419T548 310Q548 231 509 160T403 45T254 0V0ZM276 130Q310 130 340 152T389 212T408 293Q408 322 394 347T355 387T306 402Q272 402 242 380T194 320T176 240Q176 187 203 159T276 130V130Z" />
<glyph unicode="&#xf9;" glyph-name="ugrave" horiz-adv-x="558" d="M196 -1Q155 -1 120 19T62 79T40 172Q40 217 50 263T77 364Q82 382 89 401T102 439L113 471Q122 499 143 513T189 528Q222 528 237 506T241 455L223 403Q198 329 187 287T175 203Q175 169 191
150T235 131Q252 131 266 138T293 157T318 179Q327 188 339 202T353 218Q383 349 404 459Q411 492 435 510T488 529Q518 529 534 510T544 461Q496 219 461 60Q454 31 435 16T386 0Q361 1 345 22T331 73Q305 39 270 19T196 -1V-1ZM377 570Q349 572 324 594L238 675Q211
700 208 727T222 774T266 795T319 771L408 686Q432 663 438 636T425 589T377 570V570Z" />
<glyph unicode="&#xfa;" glyph-name="uacute" horiz-adv-x="558" d="M196 -1Q155 -1 120 19T62 79T40 172Q40 217 50 263T77 364Q82 382 89 401T102 439L113 471Q122 499 143 513T189 528Q222 528 237 506T241 455L223 403Q198 329 187 287T175 203Q175 169 191
150T235 131Q252 131 266 138T293 157T318 179Q327 188 339 202T353 218Q383 349 404 459Q411 492 435 510T488 529Q518 529 534 510T544 461Q496 219 461 60Q454 31 435 16T386 0Q361 1 345 22T331 73Q305 39 270 19T196 -1V-1ZM344 570Q316 568 298 587T284 635T313
686L409 772Q434 795 462 796Q490 797 508 778T522 731T493 680L397 594Q372 572 344 570V570Z" />
<glyph unicode="&#xfb;" glyph-name="ucircumflex" horiz-adv-x="558" d="M196 -1Q155 -1 120 19T62 79T40 172Q40 217 50 263T77 364Q82 382 89 401T102 439L113 471Q122 499 143 513T189 528Q222 528 237 506T241 455L223 403Q198 329 187 287T175 203Q175 169
191 150T235 131Q252 131 266 138T293 157T318 179Q327 188 339 202T353 218Q383 349 404 459Q411 492 435 510T488 529Q518 529 534 510T544 461Q496 219 461 60Q454 31 435 16T386 0Q361 1 345 22T331 73Q305 39 270 19T196 -1V-1ZM247 581Q226 581 211 595T196
630Q196 648 205 661T234 689L321 751Q340 764 355 770T385 776Q412 776 436 749L492 688Q504 675 511 663T518 641Q518 616 500 599T459 581Q447 581 439 586T421 601L371 653L298 603Q266 581 247 581V581Z" />
<glyph unicode="&#xfc;" glyph-name="udieresis" horiz-adv-x="558" d="M196 -1Q155 -1 120 19T62 79T40 172Q40 217 50 263T77 364Q82 382 89 401T102 439L113 471Q122 499 143 513T189 528Q222 528 237 506T241 455L223 403Q198 329 187 287T175 203Q175 169
191 150T235 131Q252 131 266 138T293 157T318 179Q327 188 339 202T353 218Q383 349 404 459Q411 492 435 510T488 529Q518 529 534 510T544 461Q496 219 461 60Q454 31 435 16T386 0Q361 1 345 22T331 73Q305 39 270 19T196 -1V-1ZM448 591Q418 591 400 607T381
651Q381 688 407 713T468 738Q498 738 517 722T536 678Q536 641 510 616T448 591V591ZM260 591Q230 591 212 607T193 651Q193 688 219 713T280 738Q310 738 329 722T348 678Q348 641 322 616T260 591V591Z" />
<glyph unicode="&#xfd;" glyph-name="yacute" horiz-adv-x="466" d="M24 -181Q-5 -200 -25 -200Q-48 -200 -64 -184T-80 -144Q-80 -113 -48 -85L-13 -59Q39 -21 54 -5Q89 28 110 53Q84 193 43 438Q38 472 58 501T113 530Q171 530 179 467L215 189Q245 237 355
476Q367 502 384 515T422 529Q457 529 471 502T468 434Q401 282 348 193L313 135Q288 93 235 21Q192 -36 141 -87Q123 -105 86 -135T24 -181V-181ZM288 570Q260 568 242 587T228 635T257 686L353 772Q378 795 406 796Q434 797 452 778T466 731T437 680L341 594Q316
572 288 570V570Z" />
<glyph unicode="&#xfe;" glyph-name="thorn" horiz-adv-x="577" d="M-25 -134Q-4 -33 27 124T86 408Q114 532 143 652Q150 681 176 700T230 719T274 697T282 646Q261 563 258 546Q266 550 274 553Q366 586 442 540Q509 499 534 412T530 221Q510 149 461 94T346
12Q294 -10 242 -7T148 24Q132 -54 115 -134Q109 -163 84 -183T30 -204T-15 -184T-25 -134V-134ZM320 121Q351 134 376 162T412 229Q432 300 416 356T362 435Q330 454 294 442Q257 428 221 383Q206 313 186 216Q188 171 208 148Q253 94 320 121V121Z" />
<glyph unicode="&#xff;" glyph-name="ydieresis" horiz-adv-x="466" d="M24 -181Q-5 -200 -25 -200Q-48 -200 -64 -184T-80 -144Q-80 -113 -48 -85L-13 -59Q39 -21 54 -5Q89 28 110 53Q84 193 43 438Q38 472 58 501T113 530Q171 530 179 467L215 189Q245 237 355
476Q367 502 384 515T422 529Q457 529 471 502T468 434Q401 282 348 193L313 135Q288 93 235 21Q192 -36 141 -87Q123 -105 86 -135T24 -181V-181ZM392 591Q362 591 344 607T325 651Q325 688 351 713T412 738Q442 738 461 722T480 678Q480 641 454 616T392 591V591ZM204
591Q174 591 156 607T137 651Q137 688 163 713T224 738Q254 738 273 722T292 678Q292 641 266 616T204 591V591Z" />
<glyph unicode="&#x2013;" glyph-name="endash" horiz-adv-x="659" d="M546 205Q306 205 98 214Q73 215 61 233T54 277T83 318T129 334Q353 325 572 325Q597 325 610 308T619 265T593 223T546 205V205Z" />
<glyph unicode="&#x2014;" glyph-name="emdash" horiz-adv-x="835" d="M724 187Q686 190 654 191Q618 192 567 192H495Q424 193 285 199T77 206Q52 206 39 224T31 267T58 309T105 326Q173 325 312 319T523 312Q541 312 595 312T687 311T760 307Q783 305 795 286T801
243T772 202T724 187V187Z" />
<glyph unicode="&#x2018;" glyph-name="quoteleft" horiz-adv-x="308" d="M163 516Q159 536 159 540T157 554T155 567T149 589L139 628Q133 652 148 678T190 715T241 717T270 682L280 644Q286 622 286 621T289 606T292 589T296 564T304 519Q308 494 292 469T248
435T198 436T170 473L163 516Z" />
<glyph unicode="&#x2019;" glyph-name="quoteright" horiz-adv-x="308" d="M228 473Q213 447 186 436T135 434T106 469T114 519Q127 541 140 563T154 589T164 605T174 620T190 644L216 682Q233 707 261 716T311 715T337 678T325 628L299 589Q286 570 285 568T276
555T267 540T253 516L228 473V473Z" />
<glyph unicode="&#x201a;" glyph-name="quotesinglbase" horiz-adv-x="259" d="M85 -120Q67 -142 42 -148T-2 -142T-22 -105T-6 -60L26 -20L28 -18L29 -14V-10Q36 19 42 45Q48 70 70 87T116 103T154 84T162 41T150 -9Q145 -33 140 -46Q132 -62 116 -82L85 -120V-120Z" />
<glyph unicode="&#x201c;" glyph-name="quotedblleft" horiz-adv-x="487" d="M177 478Q160 548 138 620Q132 645 146 671T187 709T238 713T269 680L309 532Q314 508 299 482T258 445T207 443T177 478V478ZM353 480Q335 550 314 622Q307 647 321 673T362 711T413
715T444 682L484 534Q490 510 475 484T433 447T382 445T353 480V480Z" />
<glyph unicode="&#x201d;" glyph-name="quotedblright" horiz-adv-x="489" d="M228 483Q212 458 184 449T134 450T108 487T120 537L222 685Q239 709 267 717T317 714T342 676T327 625Q275 553 228 483V483ZM405 481Q388 456 360 447T310 448T284 485T296 535L399
683Q416 707 443 715T493 712T518 674T504 623Q452 551 405 481V481Z" />
<glyph unicode="&#x201e;" glyph-name="quotedblbase" horiz-adv-x="373" d="M236 -129Q225 -153 201 -166T155 -173T124 -146T126 -101Q154 -38 155 -37Q157 -32 161 -15Q169 15 177 44Q184 69 206 85T252 100T289 80T295 36Q287 9 280 -21Q274 -43 270 -52Q268
-60 236 -129V-129ZM81 -107Q71 -132 48 -146T2 -157T-32 -133T-33 -89Q-28 -72 -22 -56T-14 -37T-10 -25T-7 -13T-1 7T11 44Q19 68 41 84T88 98T124 76T128 32L116 -5Q110 -24 110 -26T105 -40T101 -53T94 -73T81 -107V-107Z" />
<glyph unicode="&#x2022;" glyph-name="bullet" horiz-adv-x="260" d="M217 406Q236 383 229 350T194 294T132 270T81 293T69 350T104 406T166 430T217 406V406Z" />
<glyph unicode="&#x2039;" glyph-name="guilsinglleft" horiz-adv-x="331" d="M78 197Q65 214 59 225Q48 251 55 278Q62 305 86 328Q98 339 120 355L142 370L177 395Q195 408 214 423Q236 439 260 438T298 419T305 375T275 333L189 271Q221 230 238 205Q251 187
245 162T217 121T170 105T133 125L78 197Z" />
<glyph unicode="&#x203a;" glyph-name="guilsinglright" horiz-adv-x="306" d="M138 137Q117 119 92 119T53 136T44 179T71 221L140 277L89 330Q73 346 76 370T100 414T145 435T186 420L220 386L246 359Q281 321 275 283Q268 244 219 202Q210 195 183 174L138 137V137Z" />
</font>
</defs>
</svg>
